<svg width="22" height="20" viewBox="0 0 22 20" fill="none" xmlns="http://www.w3.org/2000/svg">
<g id="Subtract" filter="url(#filter0_d_47_257)">
<path d="M15.3037 2C17.7526 2 19.7393 3.98843 19.7393 6.44141C19.7392 8.42167 18.9631 13.1215 11.3232 17.8721C11.1863 17.9557 11.0291 18 10.8691 18C10.7092 18 10.552 17.9558 10.415 17.8721C2.7761 13.1215 2.00005 8.42167 2 6.44141C2 3.98847 3.98579 2.00007 6.43457 2C8.86913 2 10.8462 4.66037 10.8691 4.69141C10.8762 4.68182 12.8594 2.00028 15.3037 2ZM15.5176 10C15.422 10 15.326 10.0171 15.2305 10.0518C15.1349 10.0865 15.0479 10.1435 14.9697 10.2217L12.3994 12.791C12.3043 12.8862 12.2285 12.997 12.1719 13.123C12.1152 13.2493 12.0869 13.3824 12.0869 13.5215V14.1738C12.0873 14.3212 12.1375 14.4448 12.2373 14.5449C12.3371 14.645 12.4606 14.6953 12.6084 14.6953H13.2607C13.4002 14.6953 13.5333 14.6693 13.6592 14.6172C13.7849 14.565 13.8957 14.4911 13.9912 14.3955L16.5605 11.8262C16.6392 11.7483 16.696 11.6588 16.7305 11.5586C16.7648 11.4585 16.7819 11.3602 16.7822 11.2646C16.7825 11.1692 16.7628 11.0739 16.7236 10.9785C16.6843 10.8829 16.6301 10.7951 16.5605 10.7168L16.0781 10.2344C15.9999 10.1565 15.9129 10.0979 15.8174 10.0586C15.7219 10.0194 15.6218 10.0001 15.5176 10ZM11.043 10.5215C10.4692 10.5219 9.90404 10.5891 9.34766 10.7236C8.79114 10.8582 8.24322 11.0605 7.7041 11.3301C7.45234 11.4608 7.24999 11.6499 7.09766 11.8975C6.94531 12.1451 6.86914 12.4172 6.86914 12.7129V13.6523C6.86958 13.7996 6.91984 13.9234 7.01953 14.0234C7.11936 14.1236 7.24378 14.1738 7.3916 14.1738H11.043V13.3125C11.043 13.1039 11.0829 12.9041 11.1611 12.7129C11.2394 12.5216 11.3522 12.3519 11.5 12.2041L12.9346 10.7695C12.6215 10.6829 12.3082 10.6194 11.9951 10.5801C11.6822 10.5408 11.3646 10.5215 11.043 10.5215ZM16 11.2646L15.5176 11.7734L15.0215 11.2783L15.5176 10.7822L16 11.2646ZM11.043 5.82617C10.4692 5.82624 9.97795 6.03084 9.56934 6.43945C9.16081 6.84809 8.95605 7.3393 8.95605 7.91309C8.9561 8.48688 9.16073 8.97809 9.56934 9.38672C9.97795 9.79534 10.4692 9.99993 11.043 10C11.6169 10 12.1089 9.79541 12.5176 9.38672C12.9261 8.97812 13.1298 8.4868 13.1299 7.91309C13.1299 7.33938 12.926 6.84806 12.5176 6.43945C12.1089 6.03077 11.6169 5.82617 11.043 5.82617Z" fill="#F24171"/>
<path d="M15.3037 2L15.3037 1.5L15.3037 1.5L15.3037 2ZM19.7393 6.44141L20.2393 6.44142V6.44141H19.7393ZM11.3232 17.8721L11.5838 18.2988L11.5873 18.2967L11.3232 17.8721ZM10.8691 18L10.869 18.5H10.8691L10.8691 18ZM10.415 17.8721L10.151 18.2967L10.1543 18.2987L10.415 17.8721ZM2 6.44141L1.5 6.44141L1.5 6.44142L2 6.44141ZM6.43457 2L6.43457 1.5L6.43456 1.5L6.43457 2ZM10.8691 4.69141L10.4673 4.98895C10.5617 5.11638 10.7109 5.1915 10.8694 5.19141C11.028 5.19131 11.1771 5.11601 11.2713 4.98846L10.8691 4.69141ZM15.5176 10L15.5179 9.5H15.5176V10ZM15.2305 10.0518L15.0598 9.58179L15.0596 9.58186L15.2305 10.0518ZM14.9697 10.2217L14.6163 9.86803L14.6162 9.86806L14.9697 10.2217ZM12.3994 12.791L12.0459 12.4374L12.0458 12.4375L12.3994 12.791ZM12.1719 13.123L11.7158 12.9181L11.7157 12.9182L12.1719 13.123ZM12.0869 13.5215L11.5869 13.5215V13.5215H12.0869ZM12.0869 14.1738L11.5869 14.1738L11.5869 14.1751L12.0869 14.1738ZM12.2373 14.5449L11.8831 14.8979L11.8832 14.8979L12.2373 14.5449ZM12.6084 14.6953L12.6084 15.1953H12.6084V14.6953ZM13.2607 14.6953L13.2607 15.1953L13.2608 15.1953L13.2607 14.6953ZM13.6592 14.6172L13.8506 15.0791L13.8508 15.079L13.6592 14.6172ZM16.5605 11.8262L16.2086 11.471L16.207 11.4726L16.5605 11.8262ZM16.7305 11.5586L17.2033 11.7211L17.2034 11.721L16.7305 11.5586ZM16.7822 11.2646L17.2822 11.2665L17.2822 11.2662L16.7822 11.2646ZM16.7236 10.9785L17.1862 10.7887L17.1861 10.7885L16.7236 10.9785ZM16.5605 10.7168L16.9343 10.3846C16.9277 10.3773 16.921 10.3702 16.9141 10.3632L16.5605 10.7168ZM16.0781 10.2344L16.4317 9.88082L16.4309 9.88002L16.0781 10.2344ZM15.8174 10.0586L16.0075 9.59616L16.0074 9.59612L15.8174 10.0586ZM11.043 10.5215L11.043 10.0215L11.0426 10.0215L11.043 10.5215ZM9.34766 10.7236L9.23011 10.2376L9.23011 10.2376L9.34766 10.7236ZM7.7041 11.3301L7.48047 10.8828L7.47365 10.8864L7.7041 11.3301ZM7.09766 11.8975L6.67182 11.6354L6.67179 11.6355L7.09766 11.8975ZM6.86914 13.6523L6.36914 13.6523L6.36914 13.6538L6.86914 13.6523ZM7.01953 14.0234L6.66531 14.3763L6.66536 14.3764L7.01953 14.0234ZM11.043 14.1738V14.6738C11.3191 14.6738 11.543 14.45 11.543 14.1738H11.043ZM11.043 13.3125L10.543 13.3124V13.3125H11.043ZM11.1611 12.7129L10.6984 12.5235L10.6984 12.5236L11.1611 12.7129ZM12.9346 10.7695L13.2881 11.1231C13.4139 10.9973 13.4634 10.8141 13.4181 10.6421C13.3727 10.4701 13.2394 10.3351 13.0679 10.2876L12.9346 10.7695ZM11.9951 10.5801L12.0574 10.084L12.0574 10.084L11.9951 10.5801ZM16 11.2646L16.3628 11.6087C16.5493 11.412 16.5452 11.1027 16.3536 10.9111L16 11.2646ZM15.5176 11.7734L15.1644 12.1273C15.2598 12.2226 15.3897 12.2752 15.5245 12.2734C15.6593 12.2715 15.7876 12.2153 15.8804 12.1175L15.5176 11.7734ZM15.0215 11.2783L14.6679 10.9248C14.5741 11.0186 14.5214 11.1459 14.5215 11.2786C14.5215 11.4113 14.5744 11.5385 14.6683 11.6322L15.0215 11.2783ZM15.5176 10.7822L15.8711 10.4287C15.6759 10.2334 15.3593 10.2334 15.164 10.4287L15.5176 10.7822ZM11.043 5.82617L11.043 5.32617L11.0429 5.32617L11.043 5.82617ZM9.56934 6.43945L9.21578 6.0859L9.21573 6.08595L9.56934 6.43945ZM8.95605 7.91309L8.45605 7.91309L8.45605 7.91312L8.95605 7.91309ZM9.56934 9.38672L9.21577 9.74026L9.21578 9.74027L9.56934 9.38672ZM11.043 10L11.0429 10.5H11.043V10ZM12.5176 9.38672L12.8711 9.74027L12.8712 9.74022L12.5176 9.38672ZM13.1299 7.91309L13.6299 7.91312V7.91309H13.1299ZM12.5176 6.43945L12.8712 6.08599L12.8711 6.0859L12.5176 6.43945ZM15.3037 2V2.5C17.4759 2.5 19.2393 4.26401 19.2393 6.44141H19.7393H20.2393C20.2393 3.71284 18.0293 1.5 15.3037 1.5V2ZM19.7393 6.44141L19.2393 6.44139C19.2392 7.36005 19.0608 8.94171 17.9618 10.8703C16.8612 12.8015 14.8222 15.1076 11.0592 17.4475L11.3232 17.8721L11.5873 18.2967C15.4641 15.886 17.6331 13.4668 18.8306 11.3654C20.0296 9.26141 20.2392 7.50303 20.2393 6.44142L19.7393 6.44141ZM11.3232 17.8721L11.0627 17.4453C11.0039 17.4812 10.9367 17.5 10.8691 17.5L10.8691 18L10.8691 18.5C11.1214 18.5 11.3688 18.4301 11.5838 18.2988L11.3232 17.8721ZM10.8691 18L10.8693 17.5C10.8013 17.5 10.7343 17.4812 10.6758 17.4455L10.415 17.8721L10.1543 18.2987C10.3697 18.4304 10.6171 18.4999 10.869 18.5L10.8691 18ZM10.415 17.8721L10.6791 17.4475C6.91656 15.1076 4.87776 12.8016 3.77736 10.8703C2.67845 8.94173 2.50002 7.36006 2.5 6.44139L2 6.44141L1.5 6.44142C1.50003 7.50302 1.70965 9.26139 2.90851 11.3654C4.10588 13.4668 6.27457 15.886 10.151 18.2967L10.415 17.8721ZM2 6.44141H2.5C2.5 4.26393 4.26262 2.50006 6.43458 2.5L6.43457 2L6.43456 1.5C3.70896 1.50008 1.5 3.71301 1.5 6.44141H2ZM6.43457 2V2.5C7.4767 2.5 8.46636 3.07567 9.23579 3.71792C9.61335 4.03306 9.92122 4.35034 10.136 4.59082C10.3504 4.83092 10.4686 4.99071 10.4673 4.98895L10.8691 4.69141L11.271 4.39387C11.2481 4.36291 10.721 3.65505 9.8766 2.95021C9.04313 2.25451 7.827 1.5 6.43457 1.5V2ZM10.8691 4.69141L11.2713 4.98846C11.2635 4.99911 11.7341 4.36133 12.4934 3.72559C13.2639 3.08057 14.2573 2.50012 15.3038 2.5L15.3037 2L15.3037 1.5C13.9058 1.50016 12.6855 2.26062 11.8515 2.95883C11.0064 3.66633 10.4819 4.37411 10.467 4.39435L10.8691 4.69141ZM15.5176 10V9.5C15.3615 9.5 15.2078 9.52805 15.0598 9.58179L15.2305 10.0518L15.4012 10.5217C15.4442 10.5061 15.4826 10.5 15.5176 10.5V10ZM15.2305 10.0518L15.0596 9.58186C14.8883 9.64414 14.7405 9.74382 14.6163 9.86803L14.9697 10.2217L15.3232 10.5753C15.3553 10.5432 15.3814 10.5289 15.4013 10.5217L15.2305 10.0518ZM14.9697 10.2217L14.6162 9.86806L12.0459 12.4374L12.3994 12.791L12.7529 13.1446L15.3232 10.5753L14.9697 10.2217ZM12.3994 12.791L12.0458 12.4375C11.9062 12.5772 11.7964 12.7388 11.7158 12.9181L12.1719 13.123L12.6279 13.328C12.6606 13.2552 12.7023 13.1952 12.753 13.1445L12.3994 12.791ZM12.1719 13.123L11.7157 12.9182C11.6298 13.1096 11.5869 13.3125 11.5869 13.5215L12.0869 13.5215L12.5869 13.5215C12.5869 13.4522 12.6005 13.389 12.628 13.3279L12.1719 13.123ZM12.0869 13.5215H11.5869V14.1738H12.0869H12.5869V13.5215H12.0869ZM12.0869 14.1738L11.5869 14.1751C11.5876 14.4487 11.6863 14.7004 11.8831 14.8979L12.2373 14.5449L12.5915 14.192C12.5898 14.1903 12.5886 14.189 12.588 14.1882C12.5877 14.1878 12.5874 14.1875 12.5873 14.1873C12.5872 14.1871 12.5871 14.187 12.5871 14.187C12.5871 14.187 12.5871 14.1871 12.5872 14.1872C12.5873 14.1874 12.5874 14.1875 12.5875 14.1878C12.5878 14.1882 12.588 14.1887 12.5882 14.1892C12.5886 14.1903 12.5884 14.1902 12.5881 14.1882C12.5877 14.1861 12.5869 14.1811 12.5869 14.1725L12.0869 14.1738ZM12.2373 14.5449L11.8832 14.8979C12.0809 15.0963 12.3337 15.1953 12.6084 15.1953L12.6084 14.6953L12.6084 14.1953C12.5999 14.1953 12.595 14.1946 12.5931 14.1942C12.5913 14.1939 12.5914 14.1938 12.5928 14.1943C12.5942 14.1949 12.5953 14.1956 12.5958 14.1958C12.5961 14.1961 12.5946 14.1952 12.5914 14.1919L12.2373 14.5449ZM12.6084 14.6953V15.1953H13.2607V14.6953V14.1953H12.6084V14.6953ZM13.2607 14.6953L13.2608 15.1953C13.4638 15.1953 13.6621 15.1572 13.8506 15.0791L13.6592 14.6172L13.4678 14.1553C13.4045 14.1815 13.3366 14.1953 13.2607 14.1953L13.2607 14.6953ZM13.6592 14.6172L13.8508 15.079C14.0367 15.0019 14.2026 14.8913 14.3448 14.7491L13.9912 14.3955L13.6377 14.042C13.5887 14.0909 13.5331 14.1282 13.4676 14.1553L13.6592 14.6172ZM13.9912 14.3955L14.3448 14.7491L16.9141 12.1797L16.5605 11.8262L16.207 11.4726L13.6377 14.042L13.9912 14.3955ZM16.5605 11.8262L16.9125 12.1813C17.043 12.052 17.1427 11.8974 17.2033 11.7211L16.7305 11.5586L16.2576 11.3961C16.2493 11.4201 16.2353 11.4446 16.2086 11.4711L16.5605 11.8262ZM16.7305 11.5586L17.2034 11.721C17.2541 11.5734 17.2817 11.4209 17.2822 11.2665L16.7822 11.2646L16.2822 11.2628C16.2821 11.2995 16.2756 11.3436 16.2576 11.3962L16.7305 11.5586ZM16.7822 11.2646L17.2822 11.2662C17.2827 11.0989 17.2478 10.9388 17.1862 10.7887L16.7236 10.9785L16.2611 11.1684C16.2778 11.2091 16.2823 11.2395 16.2822 11.2631L16.7822 11.2646ZM16.7236 10.9785L17.1861 10.7885C17.1259 10.6421 17.0421 10.5059 16.9343 10.3846L16.5605 10.7168L16.1868 11.049C16.2181 11.0842 16.2427 11.1237 16.2612 11.1686L16.7236 10.9785ZM16.5605 10.7168L16.9141 10.3632L16.4317 9.88082L16.0781 10.2344L15.7246 10.5879L16.207 11.0704L16.5605 10.7168ZM16.0781 10.2344L16.4309 9.88002C16.3093 9.759 16.1679 9.66212 16.0075 9.59616L15.8174 10.0586L15.6272 10.521C15.658 10.5337 15.6905 10.5541 15.7254 10.5887L16.0781 10.2344ZM15.8174 10.0586L16.0074 9.59612C15.8499 9.53139 15.6851 9.5001 15.5179 9.5L15.5176 10L15.5173 10.5C15.5584 10.5 15.5939 10.5073 15.6273 10.5211L15.8174 10.0586ZM11.043 10.5215L11.0426 10.0215C10.4296 10.0219 9.82513 10.0937 9.23011 10.2376L9.34766 10.7236L9.4652 11.2096C9.98296 11.0844 10.5088 11.0218 11.0433 11.0215L11.043 10.5215ZM9.34766 10.7236L9.23011 10.2376C8.63493 10.3816 8.05154 10.5973 7.48049 10.8829L7.7041 11.3301L7.92771 11.7773C8.43491 11.5237 8.94736 11.3349 9.4652 11.2096L9.34766 10.7236ZM7.7041 11.3301L7.47365 10.8864C7.13975 11.0598 6.87057 11.3124 6.67182 11.6354L7.09766 11.8975L7.5235 12.1595C7.6294 11.9874 7.76493 11.8619 7.93455 11.7738L7.7041 11.3301ZM7.09766 11.8975L6.67179 11.6355C6.47003 11.9634 6.36914 12.3265 6.36914 12.7129H6.86914H7.36914C7.36914 12.5079 7.42059 12.3268 7.52353 12.1594L7.09766 11.8975ZM6.86914 12.7129H6.36914V13.6523H6.86914H7.36914V12.7129H6.86914ZM6.86914 13.6523L6.36914 13.6538C6.36996 13.927 6.46858 14.1788 6.66531 14.3763L7.01953 14.0234L7.37375 13.6706C7.37207 13.6689 7.37099 13.6676 7.37036 13.6669C7.36973 13.6661 7.36947 13.6657 7.36946 13.6657C7.36946 13.6657 7.36962 13.6659 7.36985 13.6664C7.37008 13.6668 7.3703 13.6673 7.37048 13.6677C7.37089 13.6687 7.37068 13.6686 7.37029 13.6665C7.36989 13.6644 7.36916 13.6594 7.36914 13.6509L6.86914 13.6523ZM7.01953 14.0234L6.66536 14.3764C6.86383 14.5755 7.11786 14.6738 7.3916 14.6738V14.1738V13.6738C7.38302 13.6738 7.37798 13.6731 7.37583 13.6727C7.37378 13.6723 7.3737 13.6721 7.37488 13.6726C7.37609 13.6731 7.37712 13.6737 7.37757 13.674C7.37797 13.6743 7.37663 13.6734 7.3737 13.6705L7.01953 14.0234ZM7.3916 14.1738V14.6738H11.043V14.1738V13.6738H7.3916V14.1738ZM11.043 14.1738H11.543V13.3125H11.043H10.543V14.1738H11.043ZM11.043 13.3125L11.543 13.3126C11.543 13.1696 11.57 13.034 11.6239 12.9022L11.1611 12.7129L10.6984 12.5236C10.5958 12.7742 10.543 13.0383 10.543 13.3124L11.043 13.3125ZM11.1611 12.7129L11.6239 12.9022C11.6769 12.7727 11.7525 12.6587 11.8536 12.5577L11.5 12.2041L11.1464 11.8505C10.9519 12.0451 10.8019 12.2706 10.6984 12.5235L11.1611 12.7129ZM11.5 12.2041L11.8536 12.5577L13.2881 11.1231L12.9346 10.7695L12.581 10.416L11.1464 11.8505L11.5 12.2041ZM12.9346 10.7695L13.0679 10.2876C12.7328 10.1949 12.3956 10.1264 12.0574 10.084L11.9951 10.5801L11.9328 11.0762C12.2207 11.1123 12.5103 11.1709 12.8012 11.2514L12.9346 10.7695ZM11.9951 10.5801L12.0574 10.084C11.7231 10.042 11.3846 10.0215 11.043 10.0215V10.5215V11.0215C11.3445 11.0215 11.6413 11.0396 11.9329 11.0762L11.9951 10.5801ZM16 11.2646L15.6372 10.9206L15.1547 11.4294L15.5176 11.7734L15.8804 12.1175L16.3628 11.6087L16 11.2646ZM15.5176 11.7734L15.8708 11.4195L15.3747 10.9244L15.0215 11.2783L14.6683 11.6322L15.1644 12.1273L15.5176 11.7734ZM15.0215 11.2783L15.375 11.6319L15.8711 11.1358L15.5176 10.7822L15.164 10.4287L14.6679 10.9248L15.0215 11.2783ZM15.5176 10.7822L15.164 11.1358L15.6464 11.6182L16 11.2646L16.3536 10.9111L15.8711 10.4287L15.5176 10.7822ZM11.043 5.82617L11.0429 5.32617C10.3353 5.32626 9.7173 5.58439 9.21578 6.0859L9.56934 6.43945L9.92289 6.79301C10.2386 6.47729 10.603 6.32623 11.043 6.32617L11.043 5.82617ZM9.56934 6.43945L9.21573 6.08595C8.71443 6.58739 8.45605 7.20536 8.45605 7.91309L8.95605 7.91309L9.45605 7.91309C9.45605 7.47323 9.60719 7.1088 9.92294 6.79296L9.56934 6.43945ZM8.95605 7.91309L8.45605 7.91312C8.45611 8.62076 8.7143 9.23876 9.21577 9.74026L9.56934 9.38672L9.9229 9.03318C9.60716 8.71741 9.45609 8.353 9.45605 7.91305L8.95605 7.91309ZM9.56934 9.38672L9.21578 9.74027C9.7173 10.2418 10.3353 10.4999 11.0429 10.5L11.043 10L11.043 9.5C10.603 9.49995 10.2386 9.34888 9.92289 9.03317L9.56934 9.38672ZM11.043 10V10.5C11.7505 10.5 12.3694 10.242 12.8711 9.74027L12.5176 9.38672L12.164 9.03317C11.8484 9.34881 11.4832 9.5 11.043 9.5V10ZM12.5176 9.38672L12.8712 9.74022C13.3729 9.23837 13.6298 8.62011 13.6299 7.91312L13.1299 7.91309L12.6299 7.91305C12.6299 8.35348 12.4792 8.71787 12.164 9.03322L12.5176 9.38672ZM13.1299 7.91309H13.6299C13.6299 7.20601 13.3728 6.58778 12.8712 6.08599L12.5176 6.43945L12.1639 6.79292C12.4792 7.10833 12.6299 7.47276 12.6299 7.91309H13.1299ZM12.5176 6.43945L12.8711 6.0859C12.3694 5.58417 11.7505 5.32617 11.043 5.32617V5.82617V6.32617C11.4832 6.32617 11.8484 6.47736 12.164 6.79301L12.5176 6.43945Z" fill="white"/>
</g>
<defs>
<filter id="filter0_d_47_257" x="0.5" y="0.6" width="20.7393" height="19" filterUnits="userSpaceOnUse" color-interpolation-filters="sRGB">
<feFlood flood-opacity="0" result="BackgroundImageFix"/>
<feColorMatrix in="SourceAlpha" type="matrix" values="0 0 0 0 0 0 0 0 0 0 0 0 0 0 0 0 0 0 127 0" result="hardAlpha"/>
<feOffset dy="0.1"/>
<feGaussianBlur stdDeviation="0.5"/>
<feComposite in2="hardAlpha" operator="out"/>
<feColorMatrix type="matrix" values="0 0 0 0 0 0 0 0 0 0 0 0 0 0 0 0 0 0 0.25 0"/>
<feBlend mode="normal" in2="BackgroundImageFix" result="effect1_dropShadow_47_257"/>
<feBlend mode="normal" in="SourceGraphic" in2="effect1_dropShadow_47_257" result="shape"/>
</filter>
</defs>
</svg>
