
<svg width="20" height="17" viewBox="0 0 20 17" fill="none" xmlns="http://www.w3.org/2000/svg">
<g id="Subtract">
<path d="M14.0391 0.532227C16.5441 0.532281 18.5781 2.55781 18.5781 5.05957C18.5781 6.02915 18.3855 7.63203 17.2891 9.54785C16.194 11.4612 14.2126 13.6597 10.6768 15.8486L10.6738 15.8506C10.5216 15.9432 10.3521 16.0032 10.1768 16.0273L10 16.04C9.76236 16.04 9.52911 15.9741 9.32617 15.8506L9.32324 15.8486C5.78763 13.6596 3.8061 11.4612 2.71094 9.54785C1.6144 7.63206 1.42193 6.02921 1.42188 5.05957C1.42188 2.55778 3.4559 0.532238 5.96094 0.532227C7.25134 0.532239 8.3739 1.23241 9.13672 1.86914C9.49369 2.16711 9.78697 2.46423 10 2.69824C10.2129 2.46434 10.5056 2.16696 10.8623 1.86914C11.6251 1.23239 12.7486 0.532234 14.0391 0.532227ZM14.1553 8.2207C14.0693 8.2207 13.9834 8.23654 13.8975 8.26758C13.8115 8.29862 13.7334 8.34909 13.6631 8.41895L11.3545 10.7119C11.2689 10.797 11.2004 10.8961 11.1494 11.0088C11.0985 11.1215 11.0732 11.2401 11.0732 11.3643V11.9463C11.0736 12.0779 11.1183 12.1889 11.208 12.2783C11.2977 12.3677 11.4092 12.4121 11.542 12.4121H12.1279C12.2532 12.4121 12.3723 12.3883 12.4854 12.3418C12.5984 12.2953 12.6983 12.2298 12.7842 12.1445L15.0928 9.85059C15.1633 9.78108 15.2142 9.70166 15.2451 9.6123C15.276 9.52306 15.2916 9.43581 15.292 9.35059C15.2923 9.26521 15.2746 9.17912 15.2393 9.09375C15.204 9.00854 15.1552 8.93107 15.0928 8.86133L14.6592 8.43066C14.5889 8.36113 14.5107 8.30852 14.4248 8.27344C14.3389 8.23836 14.249 8.22071 14.1553 8.2207ZM10.1357 8.68652C9.62015 8.68684 9.11227 8.74705 8.6123 8.86719C8.11235 8.98733 7.62008 9.16762 7.13574 9.4082C6.90952 9.52493 6.72768 9.69401 6.59082 9.91504C6.45402 10.136 6.38574 10.3788 6.38574 10.6426V11.4805C6.38605 11.6121 6.43085 11.7231 6.52051 11.8125C6.61016 11.9019 6.72175 11.9463 6.85449 11.9463H10.1357V11.1777C10.1358 10.9916 10.171 10.8132 10.2412 10.6426C10.3115 10.4719 10.4131 10.3204 10.5459 10.1885L11.835 8.9082C11.5537 8.8309 11.2725 8.77434 10.9912 8.73926C10.71 8.70418 10.4248 8.68652 10.1357 8.68652ZM14.5889 9.35059L14.1553 9.80469L13.71 9.3623L14.1553 8.91895L14.5889 9.35059ZM10.1357 4.49512C9.62016 4.49513 9.17869 4.67821 8.81152 5.04297C8.44447 5.40771 8.26074 5.84624 8.26074 6.3584C8.26078 6.87056 8.4444 7.30909 8.81152 7.67383C9.17869 8.03859 9.62016 8.22069 10.1357 8.2207C10.6513 8.2207 11.0928 8.03857 11.46 7.67383C11.8271 7.30909 12.0107 6.87057 12.0107 6.3584C12.0107 5.84621 11.8271 5.40772 11.46 5.04297C11.0928 4.67819 10.6514 4.49512 10.1357 4.49512Z" fill="#F24171"/>
<path d="M14.0391 0.532227L14.0391 0.0322266L14.0391 0.0322266L14.0391 0.532227ZM18.5781 5.05957L19.0781 5.0596V5.05957H18.5781ZM17.2891 9.54785L17.723 9.79622L17.723 9.79621L17.2891 9.54785ZM10.6768 15.8486L10.4136 15.4235C10.4088 15.4265 10.4041 15.4295 10.3994 15.4326L10.6768 15.8486ZM10.6738 15.8506L10.9337 16.2777C10.9396 16.2741 10.9454 16.2704 10.9512 16.2666L10.6738 15.8506ZM10.1768 16.0273L10.2126 16.5261C10.2234 16.5253 10.2343 16.5241 10.2451 16.5227L10.1768 16.0273ZM10 16.04L9.99999 16.54C10.0119 16.54 10.0239 16.5396 10.0358 16.5388L10 16.04ZM9.32617 15.8506L9.04882 16.2666C9.05456 16.2704 9.06037 16.2741 9.06626 16.2777L9.32617 15.8506ZM9.32324 15.8486L9.60059 15.4326C9.59593 15.4295 9.59121 15.4265 9.58644 15.4235L9.32324 15.8486ZM2.71094 9.54785L2.27699 9.79623L2.27699 9.79623L2.71094 9.54785ZM1.42188 5.05957L0.921875 5.05957L0.921875 5.0596L1.42188 5.05957ZM5.96094 0.532227L5.96094 0.0322266L5.96094 0.0322266L5.96094 0.532227ZM9.13672 1.86914L9.45713 1.48529L9.45712 1.48529L9.13672 1.86914ZM10 2.69824L9.63026 3.03483C9.72501 3.13891 9.85924 3.19824 10 3.19824C10.1408 3.19824 10.275 3.13892 10.3697 3.03483L10 2.69824ZM10.8623 1.86914L10.5419 1.48529L10.5419 1.48532L10.8623 1.86914ZM14.1553 8.2207L14.1553 7.7207H14.1553V8.2207ZM13.8975 8.26758L13.7276 7.79732L13.7276 7.79732L13.8975 8.26758ZM13.6631 8.41895L14.0154 8.7737L14.0155 8.77366L13.6631 8.41895ZM11.3545 10.7119L11.0021 10.3572L11.0021 10.3572L11.3545 10.7119ZM11.1494 11.0088L10.6938 10.8029L10.6938 10.8029L11.1494 11.0088ZM11.0732 11.9463L10.5732 11.9463L10.5732 11.9475L11.0732 11.9463ZM11.208 12.2783L10.855 12.6324L10.8551 12.6325L11.208 12.2783ZM11.542 12.4121L11.542 12.9121H11.542V12.4121ZM12.1279 12.4121V11.9121V12.4121ZM12.4854 12.3418L12.6756 12.8042L12.6757 12.8042L12.4854 12.3418ZM12.7842 12.1445L13.1365 12.4993L13.1366 12.4992L12.7842 12.1445ZM15.0928 9.85059L14.7419 9.4944L14.7403 9.49591L15.0928 9.85059ZM15.2451 9.6123L15.7176 9.7758L15.7176 9.77577L15.2451 9.6123ZM15.292 9.35059L15.792 9.3527L15.792 9.35242L15.292 9.35059ZM15.2393 9.09375L15.7013 8.90265L15.7012 8.90245L15.2393 9.09375ZM15.0928 8.86133L15.4654 8.52799C15.4589 8.52065 15.4521 8.51351 15.4451 8.50658L15.0928 8.86133ZM14.6592 8.43066L15.0115 8.07591L15.0108 8.07517L14.6592 8.43066ZM14.4248 8.27344L14.6138 7.81053L14.6138 7.81052L14.4248 8.27344ZM10.1357 8.68652L10.1357 8.18652L10.1354 8.18652L10.1357 8.68652ZM8.6123 8.86719L8.49548 8.38103L8.49548 8.38103L8.6123 8.86719ZM7.13574 9.4082L6.91328 8.96035L6.90647 8.96387L7.13574 9.4082ZM6.59082 9.91504L6.16572 9.65181L6.16568 9.65187L6.59082 9.91504ZM6.38574 11.4805L5.88574 11.4805L5.88574 11.4817L6.38574 11.4805ZM6.52051 11.8125L6.16745 12.1666L6.1675 12.1666L6.52051 11.8125ZM6.85449 11.9463L6.85436 12.4463H6.85449V11.9463ZM10.1357 11.9463V12.4463C10.4119 12.4463 10.6357 12.2224 10.6357 11.9463H10.1357ZM10.1357 11.1777L9.63574 11.1777V11.1777H10.1357ZM10.2412 10.6426L9.77887 10.4522L9.77885 10.4523L10.2412 10.6426ZM10.5459 10.1885L10.1936 9.83372L10.1935 9.83379L10.5459 10.1885ZM11.835 8.9082L12.1873 9.26296C12.3139 9.13727 12.3639 8.95369 12.3186 8.78118C12.2732 8.60866 12.1395 8.47335 11.9675 8.42608L11.835 8.9082ZM10.9912 8.73926L11.0531 8.2431L11.0531 8.2431L10.9912 8.73926ZM14.5889 9.35059L14.9505 9.69588C15.1384 9.4991 15.1344 9.18819 14.9416 8.99624L14.5889 9.35059ZM14.1553 9.80469L13.8029 10.1594C13.8982 10.2541 14.0276 10.3064 14.1619 10.3046C14.2962 10.3029 14.4241 10.2471 14.5169 10.15L14.1553 9.80469ZM13.71 9.3623L13.3572 9.00798C13.2629 9.10187 13.2099 9.2295 13.21 9.36258C13.21 9.49566 13.2632 9.62323 13.3576 9.71702L13.71 9.3623ZM14.1553 8.91895L14.508 8.56459C14.3129 8.37039 13.9976 8.3704 13.8025 8.56462L14.1553 8.91895ZM10.1357 4.49512L10.1357 3.99512L10.1357 3.99512L10.1357 4.49512ZM8.81152 5.04297L8.45913 4.68826L8.45909 4.6883L8.81152 5.04297ZM8.26074 6.3584L7.76074 6.3584L7.76074 6.35844L8.26074 6.3584ZM8.81152 7.67383L8.45913 8.02854L8.45913 8.02854L8.81152 7.67383ZM10.1357 8.2207L10.1357 8.7207H10.1357V8.2207ZM11.46 7.67383L11.8123 8.02855L11.8124 8.02854L11.46 7.67383ZM12.0107 6.3584L12.5107 6.35844V6.3584H12.0107ZM11.46 5.04297L11.8124 4.68829L11.8124 4.68826L11.46 5.04297ZM14.0391 0.532227L14.0391 1.03223C16.2694 1.03228 18.0781 2.83541 18.0781 5.05957H18.5781H19.0781C19.0781 2.28021 16.8187 0.0322874 14.0391 0.0322266L14.0391 0.532227ZM18.5781 5.05957L18.0781 5.05954C18.0781 5.95731 17.9013 7.47154 16.8551 9.29949L17.2891 9.54785L17.723 9.79621C18.8698 7.79252 19.0781 6.101 19.0781 5.0596L18.5781 5.05957ZM17.2891 9.54785L16.8551 9.29948C15.8088 11.1276 13.8926 13.2698 10.4136 15.4235L10.6768 15.8486L10.9399 16.2738C14.5327 14.0496 16.5792 11.7947 17.723 9.79622L17.2891 9.54785ZM10.6768 15.8486L10.3994 15.4326L10.3965 15.4346L10.6738 15.8506L10.9512 16.2666L10.9541 16.2647L10.6768 15.8486ZM10.6738 15.8506L10.4139 15.4234C10.3206 15.4802 10.2163 15.5172 10.1084 15.532L10.1768 16.0273L10.2451 16.5227C10.4878 16.4892 10.7226 16.4062 10.9337 16.2777L10.6738 15.8506ZM10.1768 16.0273L10.1409 15.5286L9.96418 15.5413L10 16.04L10.0358 16.5388L10.2126 16.5261L10.1768 16.0273ZM10 16.04L10 15.54C9.85483 15.54 9.71138 15.4997 9.58609 15.4235L9.32617 15.8506L9.06626 16.2777C9.34683 16.4485 9.66988 16.54 9.99999 16.54L10 16.04ZM9.32617 15.8506L9.60352 15.4346L9.60059 15.4326L9.32324 15.8486L9.04589 16.2647L9.04882 16.2666L9.32617 15.8506ZM9.32324 15.8486L9.58644 15.4235C6.10764 13.2697 4.19128 11.1276 3.14488 9.29947L2.71094 9.54785L2.27699 9.79623C3.42092 11.7948 5.46763 14.0496 9.06004 16.2737L9.32324 15.8486ZM2.71094 9.54785L3.14488 9.29948C2.09865 7.47157 1.92193 5.95738 1.92187 5.05954L1.42188 5.05957L0.921875 5.0596C0.921938 6.10103 1.13015 7.79255 2.27699 9.79623L2.71094 9.54785ZM1.42188 5.05957H1.92188C1.92188 2.83538 3.73059 1.03224 5.96094 1.03223L5.96094 0.532227L5.96094 0.0322266C3.18121 0.0322395 0.921875 2.28019 0.921875 5.05957H1.42188ZM5.96094 0.532227L5.96093 1.03223C7.07589 1.03224 8.08513 1.64267 8.81632 2.25299L9.13672 1.86914L9.45712 1.48529C8.66267 0.822154 7.42678 0.0322405 5.96094 0.0322266L5.96094 0.532227ZM9.13672 1.86914L8.81631 2.25299C9.15183 2.53306 9.42868 2.8134 9.63026 3.03483L10 2.69824L10.3697 2.36165C10.1453 2.11506 9.83554 1.80117 9.45713 1.48529L9.13672 1.86914ZM10 2.69824L10.3697 3.03483C10.5716 2.81307 10.8478 2.53259 11.1827 2.25296L10.8623 1.86914L10.5419 1.48532C10.1634 1.80132 9.85424 2.11562 9.63026 2.36165L10 2.69824ZM10.8623 1.86914L11.1827 2.25299C11.9138 1.64275 12.924 1.03223 14.0391 1.03223L14.0391 0.532227L14.0391 0.0322266C12.5733 0.0322354 11.3365 0.822038 10.5419 1.48529L10.8623 1.86914ZM14.1553 8.2207V7.7207C14.0067 7.7207 13.8634 7.74827 13.7276 7.79732L13.8975 8.26758L14.0673 8.73783C14.1034 8.7248 14.132 8.7207 14.1553 8.7207V8.2207ZM13.8975 8.26758L13.7276 7.79732C13.5674 7.85519 13.4282 7.94749 13.3107 8.06423L13.6631 8.41895L14.0155 8.77366C14.0386 8.7507 14.0556 8.74206 14.0673 8.73783L13.8975 8.26758ZM13.6631 8.41895L13.3107 8.06419L11.0021 10.3572L11.3545 10.7119L11.7068 11.0667L14.0154 8.7737L13.6631 8.41895ZM11.3545 10.7119L11.0021 10.3572C10.8723 10.4861 10.7692 10.6359 10.6938 10.8029L11.1494 11.0088L11.605 11.2147C11.6315 11.1563 11.6654 11.1078 11.7069 11.0666L11.3545 10.7119ZM11.1494 11.0088L10.6938 10.8029C10.6132 10.9812 10.5732 11.1701 10.5732 11.3643H11.0732H11.5732C11.5732 11.3101 11.5838 11.2618 11.605 11.2147L11.1494 11.0088ZM11.0732 11.3643H10.5732V11.9463H11.0732H11.5732V11.3643H11.0732ZM11.0732 11.9463L10.5732 11.9475C10.5739 12.2045 10.6666 12.4446 10.855 12.6324L11.208 12.2783L11.561 11.9242C11.5606 11.9238 11.562 11.9252 11.5642 11.9285C11.5665 11.9318 11.5687 11.9359 11.5705 11.9403C11.5723 11.9448 11.5731 11.9481 11.5734 11.9496C11.5736 11.9511 11.5733 11.9498 11.5732 11.9451L11.0732 11.9463ZM11.208 12.2783L10.8551 12.6325C11.0442 12.8209 11.2852 12.9121 11.542 12.9121L11.542 12.4121L11.542 11.9121C11.5368 11.9121 11.535 11.9117 11.536 11.9119C11.5372 11.9121 11.5403 11.9128 11.5445 11.9145C11.5489 11.9162 11.5529 11.9184 11.5563 11.9206C11.5597 11.9229 11.5612 11.9244 11.5609 11.9241L11.208 12.2783ZM11.542 12.4121V12.9121H12.1279V12.4121V11.9121H11.542V12.4121ZM12.1279 12.4121L12.1279 12.9121C12.3183 12.9121 12.502 12.8756 12.6756 12.8042L12.4854 12.3418L12.2951 11.8794C12.2425 11.9011 12.1881 11.9121 12.1279 11.9121L12.1279 12.4121ZM12.4854 12.3418L12.6757 12.8042C12.847 12.7336 13.0024 12.6324 13.1365 12.4993L12.7842 12.1445L12.4319 11.7897C12.3941 11.8272 12.3499 11.8569 12.295 11.8794L12.4854 12.3418ZM12.7842 12.1445L13.1366 12.4992L15.4452 10.2053L15.0928 9.85059L14.7403 9.49591L12.4318 11.7899L12.7842 12.1445ZM15.0928 9.85059L15.4437 10.2068C15.5661 10.0862 15.6602 9.94177 15.7176 9.7758L15.2451 9.6123L14.7726 9.44881C14.7682 9.46155 14.7606 9.47595 14.7419 9.49441L15.0928 9.85059ZM15.2451 9.6123L15.7176 9.77577C15.7645 9.64027 15.7914 9.49853 15.792 9.3527L15.292 9.35059L14.792 9.34847C14.7919 9.37309 14.7875 9.40585 14.7726 9.44884L15.2451 9.6123ZM15.292 9.35059L15.792 9.35242C15.7926 9.19525 15.7597 9.04379 15.7013 8.90265L15.2393 9.09375L14.7772 9.28485C14.7895 9.31446 14.792 9.33517 14.792 9.34876L15.292 9.35059ZM15.2393 9.09375L15.7012 8.90245C15.6441 8.76447 15.5648 8.63911 15.4654 8.52799L15.0928 8.86133L14.7201 9.19467C14.7455 9.22302 14.7639 9.25261 14.7773 9.28505L15.2393 9.09375ZM15.0928 8.86133L15.4451 8.50658L15.0115 8.07591L14.6592 8.43066L14.3068 8.78541L14.7404 9.21608L15.0928 8.86133ZM14.6592 8.43066L15.0108 8.07517C14.8976 7.96319 14.7651 7.8723 14.6138 7.81053L14.4248 8.27344L14.2358 8.73635C14.2564 8.74473 14.2802 8.75906 14.3076 8.78616L14.6592 8.43066ZM14.4248 8.27344L14.6138 7.81052C14.4676 7.75085 14.3135 7.72071 14.1553 7.7207L14.1553 8.2207L14.1552 8.7207C14.1845 8.72071 14.2102 8.72587 14.2358 8.73635L14.4248 8.27344ZM10.1357 8.68652L10.1354 8.18652C9.58073 8.18686 9.03373 8.25169 8.49548 8.38103L8.6123 8.86719L8.72913 9.35335C9.19081 9.24241 9.65958 9.18681 10.136 9.18652L10.1357 8.68652ZM8.6123 8.86719L8.49548 8.38103C7.95722 8.51038 7.42962 8.70393 6.91331 8.96041L7.13574 9.4082L7.35818 9.856C7.81053 9.6313 8.26747 9.46429 8.72913 9.35335L8.6123 8.86719ZM7.13574 9.4082L6.90647 8.96387C6.59806 9.123 6.34923 9.35546 6.16572 9.65181L6.59082 9.91504L7.01592 10.1783C7.10614 10.0326 7.22098 9.92686 7.36501 9.85254L7.13574 9.4082ZM6.59082 9.91504L6.16568 9.65187C5.97903 9.9534 5.88574 10.2876 5.88574 10.6426H6.38574H6.88574C6.88574 10.47 6.92902 10.3187 7.01596 10.1782L6.59082 9.91504ZM6.38574 10.6426H5.88574V11.4805H6.38574H6.88574V10.6426H6.38574ZM6.38574 11.4805L5.88574 11.4817C5.88635 11.7387 5.9792 11.9788 6.16745 12.1666L6.52051 11.8125L6.87356 11.4584C6.87316 11.458 6.87457 11.4594 6.87677 11.4627C6.879 11.466 6.88121 11.4701 6.88301 11.4745C6.88479 11.4789 6.88559 11.4822 6.88587 11.4838C6.88614 11.4852 6.88575 11.4839 6.88574 11.4793L6.38574 11.4805ZM6.52051 11.8125L6.1675 12.1666C6.35672 12.3552 6.59787 12.4462 6.85436 12.4463L6.85449 11.9463L6.85462 11.4463C6.84933 11.4463 6.84752 11.4459 6.84853 11.446C6.84964 11.4462 6.8527 11.4469 6.85698 11.4486C6.8613 11.4504 6.86539 11.4525 6.86882 11.4548C6.87221 11.4571 6.87373 11.4586 6.87352 11.4584L6.52051 11.8125ZM6.85449 11.9463V12.4463H10.1357V11.9463V11.4463H6.85449V11.9463ZM10.1357 11.9463H10.6357V11.1777H10.1357H9.63574V11.9463H10.1357ZM10.1357 11.1777L10.6357 11.1778C10.6358 11.0565 10.6583 10.9428 10.7036 10.8329L10.2412 10.6426L9.77885 10.4523C9.68359 10.6837 9.63578 10.9267 9.63574 11.1777L10.1357 11.1777ZM10.2412 10.6426L10.7035 10.833C10.7482 10.7246 10.8121 10.6288 10.8983 10.5432L10.5459 10.1885L10.1935 9.83379C10.0142 10.012 9.87486 10.2191 9.77887 10.4522L10.2412 10.6426ZM10.5459 10.1885L10.8982 10.5432L12.1873 9.26296L11.835 8.9082L11.4826 8.55344L10.1936 9.83372L10.5459 10.1885ZM11.835 8.9082L11.9675 8.42608C11.6641 8.34271 11.3593 8.28129 11.0531 8.2431L10.9912 8.73926L10.9293 9.23541C11.1856 9.26738 11.4433 9.31909 11.7024 9.39032L11.835 8.9082ZM10.9912 8.73926L11.0531 8.2431C10.7511 8.20543 10.4452 8.18652 10.1357 8.18652V8.68652V9.18652C10.4044 9.18652 10.6689 9.20293 10.9293 9.23541L10.9912 8.73926ZM14.5889 9.35059L14.2272 9.00529L13.7936 9.45939L14.1553 9.80469L14.5169 10.15L14.9505 9.69588L14.5889 9.35059ZM14.1553 9.80469L14.5077 9.44997L14.0623 9.00759L13.71 9.3623L13.3576 9.71702L13.8029 10.1594L14.1553 9.80469ZM13.71 9.3623L14.0627 9.71663L14.508 9.27327L14.1553 8.91895L13.8025 8.56462L13.3572 9.00798L13.71 9.3623ZM14.1553 8.91895L13.8025 9.2733L14.2361 9.70494L14.5889 9.35059L14.9416 8.99624L14.508 8.56459L14.1553 8.91895ZM10.1357 4.49512L10.1357 3.99512C9.4871 3.99514 8.91924 4.23116 8.45913 4.68826L8.81152 5.04297L9.16392 5.39768C9.43813 5.12526 9.75322 4.99513 10.1358 4.99512L10.1357 4.49512ZM8.81152 5.04297L8.45909 4.6883C7.99877 5.14572 7.76074 5.71143 7.76074 6.3584H8.26074H8.76074C8.76074 5.98106 8.89017 5.6697 9.16396 5.39764L8.81152 5.04297ZM8.26074 6.3584L7.76074 6.35844C7.76079 7.00531 7.99864 7.57105 8.45913 8.02854L8.81152 7.67383L9.16392 7.31912C8.89015 7.04714 8.76077 6.73581 8.76074 6.35836L8.26074 6.3584ZM8.81152 7.67383L8.45913 8.02854C8.91972 8.48612 9.48778 8.72068 10.1357 8.7207L10.1357 8.2207L10.1358 7.7207C9.75254 7.72069 9.43765 7.59106 9.16392 7.31912L8.81152 7.67383ZM10.1357 8.2207V8.7207C10.7837 8.7207 11.3518 8.48609 11.8123 8.02855L11.46 7.67383L11.1076 7.31911C10.8338 7.59106 10.5189 7.7207 10.1357 7.7207V8.2207ZM11.46 7.67383L11.8124 8.02854C12.2729 7.57105 12.5107 7.00531 12.5107 6.35844L12.0107 6.3584L11.5107 6.35836C11.5107 6.73582 11.3813 7.04714 11.1076 7.31912L11.46 7.67383ZM12.0107 6.3584H12.5107C12.5107 5.71142 12.2728 5.14574 11.8124 4.68829L11.46 5.04297L11.1075 5.39765C11.3813 5.66971 11.5107 5.98101 11.5107 6.3584H12.0107ZM11.46 5.04297L11.8124 4.68826C11.3522 4.23115 10.7844 3.99512 10.1357 3.99512V4.49512V4.99512C10.5183 4.99512 10.8333 5.12523 11.1076 5.39768L11.46 5.04297Z" fill="white"/>
</g>
</svg>
