<?xml version="1.0" encoding="UTF-8"?>
<svg version="1.1" xmlns="http://www.w3.org/2000/svg" width="1024" height="1024">
<path d="M0 0 C0.89229309 -0.00983917 1.78458618 -0.01967834 2.70391846 -0.02981567 C69.47118337 -0.61442586 127.21208234 21.89022589 175.125 68.80078125 C179.38038906 73.14326891 183.2850134 77.67839595 187.0703125 82.43359375 C189.40740164 85.35699097 191.8236798 88.20117777 194.25 91.05078125 C197.99312411 95.53430354 201.52478444 100.12356808 204.9375 104.86328125 C205.37570068 105.46760986 205.81390137 106.07193848 206.26538086 106.69458008 C209.3125 110.99101192 209.3125 110.99101192 209.3125 113.23828125 C209.9725 113.23828125 210.6325 113.23828125 211.3125 113.23828125 C211.51617188 112.57183594 211.71984375 111.90539062 211.9296875 111.21875 C213.82861913 107.12585498 216.5506482 103.99250002 219.4375 100.55078125 C220.63198558 99.1084663 221.82599821 97.66575954 223.01953125 96.22265625 C223.59396973 95.53107422 224.1684082 94.83949219 224.76025391 94.12695312 C226.59917806 91.88947007 228.36212823 89.59845682 230.125 87.30078125 C244.29224616 69.56925963 261.04950917 54.58713398 279.3125 41.23828125 C279.90305176 40.80161133 280.49360352 40.36494141 281.10205078 39.91503906 C306.66687972 21.2105138 336.50357485 9.6976257 367.3125 3.23828125 C368.16086426 3.05894043 369.00922852 2.87959961 369.88330078 2.69482422 C396.99519245 -2.7146616 427.42330255 -1.56082678 454.3125 4.23828125 C455.81176025 4.55176514 455.81176025 4.55176514 457.34130859 4.87158203 C497.57527729 13.48347047 534.79318041 32.32733038 565.078125 60.1875 C567.16416886 62.10213816 569.28932046 63.95651083 571.4375 65.80078125 C578.2897083 71.80161297 584.28121813 78.23188459 589.97265625 85.34375 C591.51141977 87.24729553 593.08131857 89.12615903 594.68359375 90.9765625 C623.39476899 124.18965002 641.51736878 166.56229663 650.3125 209.23828125 C650.51214355 210.20475586 650.71178711 211.17123047 650.91748047 212.16699219 C655.99061504 237.38282562 656.79793473 262.60579878 656.3125 288.23828125 C656.29848145 289.05586914 656.28446289 289.87345703 656.27001953 290.71582031 C653.84768396 396.1498489 592.92652653 494.38979624 526.7890625 575.4296875 C525.48202459 577.03063605 524.17826644 578.63426101 522.875 580.23828125 C514.68353185 590.30208497 506.34939309 600.20132473 497.57421875 609.76171875 C495.64357495 611.87575704 493.74936868 614.01202073 491.875 616.17578125 C488.48950575 620.0710911 485.00268762 623.87082582 481.50683594 627.66674805 C478.51701336 630.91528556 475.5617114 634.19145498 472.625 637.48828125 C469.34686825 641.14623218 465.96498097 644.6489996 462.4296875 648.05859375 C460.59889145 649.94343544 458.8946166 651.87029201 457.18383789 653.86254883 C453.37445516 658.22676895 449.35478594 662.34059321 445.25390625 666.4296875 C444.5059227 667.17862778 443.75793915 667.92756805 442.98728943 668.69920349 C441.41617536 670.2709935 439.84381608 671.84153974 438.27026367 673.41088867 C435.88150154 675.79429429 433.49812554 678.18299193 431.11523438 680.57226562 C429.5784455 682.10839362 428.0413464 683.64421134 426.50390625 685.1796875 C425.80157364 685.88404434 425.09924103 686.58840118 424.37562561 687.31410217 C420.4109258 691.26035645 416.35172311 695.03268012 412.10105896 698.66990662 C409.19561727 701.21766777 406.50976635 703.9737514 403.8125 706.73828125 C399.81397396 710.83652116 395.69800767 714.69543946 391.36523438 718.43945312 C387.93044459 721.44938785 384.627688 724.59791762 381.3125 727.73828125 C376.08001286 732.69483645 370.77107938 737.5314071 365.3125 742.23828125 C364.7462793 742.7266748 364.18005859 743.21506836 363.59667969 743.71826172 C361.96263701 745.12353842 360.32564005 746.5252838 358.6875 747.92578125 C357.467425 748.97002531 356.2473736 750.01429694 355.02734375 751.05859375 C354.4122998 751.58485352 353.79725586 752.11111328 353.16357422 752.65332031 C351.35908148 754.1983964 349.55618504 755.74531104 347.75390625 757.29296875 C344.8435502 759.79207003 341.93039106 762.28786462 339.01513672 764.78125 C337.89624887 765.73873819 336.77806287 766.69704726 335.66064453 767.65625 C329.07503303 773.3061468 322.39438485 778.78874243 315.54296875 784.11352539 C311.54972366 787.2296511 307.65973604 790.44407443 303.8125 793.73828125 C297.75857277 798.91260147 291.54206012 803.8487319 285.25048828 808.72998047 C283.18047094 810.34103705 281.1191458 811.9627952 279.05859375 813.5859375 C268.66961592 821.74992644 258.09504134 829.60265887 247.3125 837.23828125 C246.60287109 837.74552734 245.89324219 838.25277344 245.16210938 838.77539062 C220.12248622 856.64762396 220.12248622 856.64762396 203.3125 855.23828125 C194.51759227 853.31783547 187.48825926 848.45425037 180.3125 843.23828125 C179.59465332 842.71878906 178.87680664 842.19929687 178.13720703 841.6640625 C168.0674592 834.35581288 158.12367724 826.88976539 148.3125 819.23828125 C147.16278509 818.3476244 146.01304472 817.45700041 144.86328125 816.56640625 C137.8984724 811.1522131 131.09870017 805.58003602 124.390625 799.8515625 C121.5854268 797.45945856 118.73786843 795.12372274 115.875 792.80078125 C110.45249847 788.38565301 105.15122545 783.83815648 99.8515625 779.27734375 C96.52084905 776.4123117 93.17023359 773.57156103 89.8125 770.73828125 C84.6543374 766.38578651 79.53170752 761.99338713 74.41772461 757.58911133 C70.78573013 754.47124641 67.10271771 751.42937323 63.375 748.42578125 C59.67906297 745.42688498 56.27285541 742.31541896 52.96484375 738.8984375 C51.26886406 737.19443899 49.50760304 735.62114042 47.6875 734.05078125 C42.34948093 729.44301141 37.20490292 724.62670569 32.03564453 719.83203125 C30.3293146 718.25383321 28.61694092 716.68249004 26.90234375 715.11328125 C21.34032193 710.01678175 15.85508141 704.89154576 10.60546875 699.46875 C8.74907933 697.66296063 6.86936011 695.99749385 4.89990234 694.32128906 C-0.77718096 689.36568202 -6.0590957 684.01097379 -11.37890625 678.6796875 C-12.49399011 677.56527907 -13.60922222 676.45101896 -14.72459412 675.3368988 C-17.05003762 673.01292104 -19.37368511 670.68716661 -21.69604492 668.36010742 C-24.65337903 665.39707674 -27.61518128 662.43855955 -30.57835484 659.48136997 C-32.87860598 657.18475493 -35.17644231 654.88573559 -37.47358513 652.58601189 C-38.56395297 651.49498319 -39.6550468 650.40467948 -40.74691963 649.31515694 C-46.07643134 643.99460537 -51.35136858 638.67225674 -56.22080994 632.91905212 C-57.80189835 631.1071851 -59.47089147 629.42160561 -61.1875 627.73828125 C-64.17984375 624.7922791 -66.94074172 621.70845118 -69.6796875 618.52734375 C-71.63078675 616.30293877 -73.62858908 614.12730527 -75.64111328 611.95849609 C-80.3729135 606.85608424 -84.87589134 601.64140814 -89.2421875 596.21875 C-92.15755063 592.66536012 -95.16597789 589.20137369 -98.1875 585.73828125 C-108.47159048 573.92107632 -118.16391369 561.67307534 -127.6875 549.23828125 C-128.22971191 548.53300293 -128.77192383 547.82772461 -129.33056641 547.10107422 C-173.93538055 488.78850574 -213.18821851 420.95261379 -227.6875 348.23828125 C-227.8844043 347.26294434 -228.08130859 346.28760742 -228.28417969 345.28271484 C-236.10570939 305.88516089 -239.22507949 265.06968018 -232.6875 225.23828125 C-232.51589355 224.17399902 -232.34428711 223.1097168 -232.16748047 222.01318359 C-225.81730184 183.72484112 -212.72399683 145.43997199 -190.6875 113.23828125 C-190.29385254 112.6561084 -189.90020508 112.07393555 -189.49462891 111.47412109 C-174.09169402 88.826452 -155.46877814 66.962165 -133.6875 50.23828125 C-133.13223633 49.81192383 -132.57697266 49.38556641 -132.00488281 48.94628906 C-117.7812899 38.09699167 -102.93381609 28.74897897 -86.6875 21.23828125 C-85.89214844 20.86815918 -85.09679687 20.49803711 -84.27734375 20.11669922 C-58.05149385 8.04247195 -28.99047698 0.26540826 0 0 Z M-95.6875 89.23828125 C-96.8293936 90.06124438 -97.97132004 90.88416194 -99.11328125 91.70703125 C-115.68718455 103.92541693 -130.02538159 119.32037365 -141.6875 136.23828125 C-142.1932959 136.96950195 -142.6990918 137.70072266 -143.22021484 138.45410156 C-155.77347715 156.86449259 -165.18170882 176.94511313 -171.6875 198.23828125 C-171.95401367 199.09228516 -172.22052734 199.94628906 -172.49511719 200.82617188 C-189.22024085 255.50058095 -183.62219196 316.7134998 -165.6875 370.23828125 C-165.41325195 371.0797168 -165.13900391 371.92115234 -164.85644531 372.78808594 C-160.3316063 386.65452806 -154.71805273 399.96510801 -148.6875 413.23828125 C-148.28660156 414.12660645 -147.88570312 415.01493164 -147.47265625 415.93017578 C-134.76896729 443.9147365 -118.77872013 470.41896778 -100.6875 495.23828125 C-100.13449219 496.00382324 -99.58148438 496.76936523 -99.01171875 497.55810547 C-91.87867763 507.4304437 -84.52927363 517.059887 -76.78125 526.45703125 C-73.78150556 530.10011241 -70.88778288 533.81882996 -68 537.55078125 C-63.92942841 542.78908569 -59.61600702 547.71606451 -55.09765625 552.578125 C-52.62563932 555.3065586 -50.30684782 558.11935883 -48 560.98828125 C-44.99830043 564.70743449 -41.90773244 568.14585083 -38.47050524 571.46143597 C-34.04753154 575.8691291 -30.09388046 580.64934113 -26.38947296 585.66943645 C-21.37798174 592.13077181 -16.49458145 598.08879628 -8.17198181 599.77968788 C-1.6168355 600.54824818 4.91680053 600.36528103 11.50195312 600.1965332 C14.01347484 600.1950494 16.52501058 600.20112912 19.03649902 600.21414185 C24.41598547 600.22561081 29.7910981 600.18592411 35.16981506 600.09862709 C42.95395158 599.97274323 50.73606491 599.94617429 58.52110523 599.94335701 C71.16652335 599.93650919 83.81035234 599.85707689 96.45507812 599.72827148 C108.70761967 599.60367308 120.95985256 599.50351086 133.21289062 599.44311523 C133.96883469 599.43937432 134.72477876 599.4356334 135.50363022 599.43177912 C143.76130734 599.39160321 152.01900161 599.35817001 160.27672577 599.32937145 C161.00284375 599.32681048 161.72896174 599.3242495 162.4770833 599.32161092 C163.20034631 599.31906091 163.92360932 599.31651089 164.66878939 599.3138836 C165.38906173 599.31134304 166.10933408 599.30880248 166.85143286 599.30618493 C168.29626026 599.30116117 169.74108811 599.2962624 171.18591636 599.29149058 C179.66804345 599.26311167 188.14950474 599.21433993 196.631257 599.12872019 C202.57461658 599.06885548 208.51800908 599.02667919 214.46156311 598.99043655 C216.89646901 598.97181015 219.33133277 598.94613314 221.76608276 598.91287422 C225.09066672 598.86811094 228.41454603 598.84804664 231.73937988 598.83369446 C232.701246 598.81433801 233.66311212 598.79498155 234.65412569 598.77503854 C240.94197068 598.78178791 244.93587125 599.9195155 250.3125 603.23828125 C251.54461948 605.70252021 251.47029908 607.39062788 251.51782227 610.14697266 C251.53776749 611.16787994 251.55771271 612.18878723 251.57826233 613.2406311 C251.59497482 614.34587128 251.61168732 615.45111145 251.62890625 616.58984375 C251.64968735 617.71901215 251.67046844 618.84818054 251.69187927 620.01156616 C251.75741335 623.62874097 251.81627774 627.24599006 251.875 630.86328125 C251.91818154 633.31120569 251.96179571 635.75912253 252.00585938 638.20703125 C252.11309867 644.21736875 252.21485787 650.2277806 252.3125 656.23828125 C255.60806805 656.25303782 258.90362739 656.2617655 262.19921875 656.26953125 C263.11860229 656.2737207 264.03798584 656.27791016 264.98522949 656.28222656 C273.45639466 656.29713075 281.86684403 655.85814591 290.3125 655.23828125 C290.41232145 648.68333957 290.03323486 642.31927996 289.375 635.80078125 C288.44377322 625.948172 287.63259369 616.13095464 287.3125 606.23828125 C287.27318359 605.1085791 287.23386719 603.97887695 287.19335938 602.81494141 C287.07653346 599.01859429 287.00198067 595.22335355 286.9375 591.42578125 C286.89931152 590.2022998 286.86112305 588.97881836 286.82177734 587.71826172 C286.74034776 579.00772736 286.74034776 579.00772736 289.578125 575.19140625 C290.48046875 574.546875 291.3828125 573.90234375 292.3125 573.23828125 C298.43292747 566.78296246 303.98410525 559.95777644 309.4296875 552.9375 C311.83480784 549.83805896 314.28356193 546.77675547 316.74829102 543.72460938 C328.045666 529.72181521 338.56098331 515.22202121 348.78271484 500.41845703 C350.21553375 498.37647286 351.69899647 496.38133926 353.19140625 494.3828125 C355.71786499 490.63732579 355.99428739 488.66989931 355.3125 484.23828125 C354.41492444 482.09048048 354.41492444 482.09048048 352.3125 481.23828125 C348.19037774 481.37097336 346.04632388 481.48248268 343.11938477 484.49707031 C342.50377686 485.48932617 341.88816895 486.48158203 341.25390625 487.50390625 C340.5460498 488.61193604 339.83819336 489.71996582 339.10888672 490.86157227 C338.56261627 491.74898605 338.56261627 491.74898605 338.00531006 492.65432739 C336.0859304 495.76856468 334.09212448 498.8346668 332.10546875 501.90625 C331.5063266 502.83829506 331.5063266 502.83829506 330.89508057 503.78916931 C327.09384179 509.66583521 322.96669962 515.26293333 318.6875 520.80078125 C318.06174072 521.61256836 317.43598145 522.42435547 316.79125977 523.26074219 C307.85531197 534.76531309 298.6592499 546.06578137 289.3125 557.23828125 C288.59562012 558.10163086 288.59562012 558.10163086 287.86425781 558.98242188 C278.28421882 570.43328646 268.18249594 576.29066685 253.3125 578.23828125 C235.46197972 579.45799876 217.90876155 577.58703336 200.26449585 575.04772949 C196.26354113 574.47224949 192.26016349 573.9182114 188.25512695 573.37207031 C187.58409408 573.28049023 186.9130612 573.18891014 186.22169399 573.0945549 C184.87502312 572.91077006 183.52834442 572.7270425 182.18165779 572.54337311 C180.19569642 572.27172105 178.21008227 571.99753456 176.22447205 571.72332764 C166.16376019 570.33666025 156.09686329 569.07916018 146 567.98828125 C145.3047522 567.91256897 144.60950439 567.83685669 143.89318848 567.7588501 C135.92606842 566.89530062 127.95262569 566.10025718 119.9765625 565.32421875 C117.52018435 565.08453526 115.06381201 564.84479275 112.60745239 564.60491943 C110.96437725 564.44498497 109.3212099 564.2859947 107.677948 564.12799072 C97.1053079 563.10808303 86.56412047 561.92449159 76.02734375 560.58203125 C74.3460009 560.36907913 74.3460009 560.36907913 72.63069153 560.15182495 C67.1026504 559.44951179 61.57715607 558.7320816 56.05395508 557.99267578 C54.04122828 557.73301143 52.02845388 557.47371563 50.015625 557.21484375 C49.091483 557.08597778 48.167341 556.95711182 47.2151947 556.82434082 C45.93546532 556.66306702 45.93546532 556.66306702 44.62988281 556.49853516 C43.51845917 556.35008652 43.51845917 556.35008652 42.38458252 556.19863892 C39.82461738 556.24761524 38.46600525 556.87158699 36.3125 558.23828125 C34.39061406 560.41432447 32.56328138 562.60124364 30.75 564.86328125 C18.60342435 579.40558703 18.60342435 579.40558703 10.5078125 580.6796875 C7.8125 580.67578125 7.8125 580.67578125 5.40625 580.421875 C3.11978955 580.08146928 3.11978955 580.08146928 0.3125 581.23828125 C-2.487069 566.68052244 3.47965685 555.86247245 10.796875 543.7890625 C12.80081132 540.29589953 13.40601815 538.68249246 12.5625 534.67578125 C12.24152344 533.69158203 12.24152344 533.69158203 11.9140625 532.6875 C8.95208411 520.62801655 11.97167868 508.8426587 17.9375 498.30078125 C21.250799 493.08338383 25.02882197 488.21258523 28.8515625 483.36328125 C30.36555663 481.44074902 31.8640417 479.50573166 33.3359375 477.55078125 C38.55853163 470.61773053 43.85946327 465.80170215 52.3125 463.23828125 C53.30765625 463.25246094 54.3028125 463.26664063 55.328125 463.28125 C59.31707593 463.30533787 61.68113059 462.96611024 65.3125 461.23828125 C70.12040252 456.0173336 73.3175976 449.44556908 76.66992188 443.24316406 C79.33350059 438.37049361 82.21202608 433.62810328 85.0625 428.86328125 C88.06403879 423.78712971 91.0494972 418.70259855 93.98828125 413.58984375 C94.78384274 412.2226496 95.57941486 410.85546164 96.375 409.48828125 C96.72079102 408.8742041 97.06658203 408.26012695 97.42285156 407.62744141 C99.30681986 404.41016023 100.68370459 402.35589504 104.3125 401.23828125 C109.11483424 400.54648771 113.79570978 400.59065788 118.1875 402.80078125 C121.85408271 405.66071576 123.84440858 407.84345483 125.3125 412.23828125 C125.48258215 421.14521501 121.1330011 427.52139078 116.625 434.86328125 C115.85869028 436.13956369 115.09389542 437.41675683 114.33056641 438.69482422 C110.6237496 444.88073162 106.83669272 451.01652208 103.03515625 457.14453125 C102.38442139 458.19817871 101.73368652 459.25182617 101.06323242 460.33740234 C99.83351192 462.32115295 98.5931266 464.29834071 97.34106445 466.26806641 C96.79281006 467.14769043 96.24455566 468.02731445 95.6796875 468.93359375 C95.19612793 469.69687988 94.71256836 470.46016602 94.21435547 471.24658203 C92.97986688 473.37270515 92.97986688 473.37270515 94.3125 476.23828125 C96.04919549 477.10392027 96.04919549 477.10392027 98.24609375 477.59765625 C99.53277954 477.93494751 99.53277954 477.93494751 100.84545898 478.27905273 C101.80395752 478.51309814 102.76245605 478.74714355 103.75 478.98828125 C105.27572632 479.37125366 105.27572632 479.37125366 106.83227539 479.76196289 C132.44991409 486.05098208 158.43441219 490.63598167 184.42684937 495.05625916 C188.30661252 495.71691052 192.1830559 496.39140518 196.05541992 497.09423828 C197.20408791 497.30164642 197.20408791 497.30164642 198.3759613 497.51324463 C199.8139854 497.77383363 201.25150275 498.03724279 202.68836975 498.30413818 C209.47943784 499.53166498 215.90033146 500.28817926 222.5625 498.23828125 C230.64299148 492.36156017 235.22654295 483.7677585 240.12988281 475.27685547 C241.27786659 473.29798171 242.44373942 471.33104875 243.6171875 469.3671875 C248.64770239 460.92809745 253.47522865 452.38697022 258.25 443.80078125 C268.78845418 424.90242722 279.4108028 407.0817214 294.3125 391.23828125 C294.86164063 390.6246875 295.41078125 390.01109375 295.9765625 389.37890625 C304.53274763 380.19049069 315.72561491 373.78188696 327.3125 369.23828125 C328.34246094 368.82449219 329.37242187 368.41070312 330.43359375 367.984375 C348.33430103 361.81690442 366.79194912 364.33645349 383.7578125 371.7421875 C392.28173199 375.92354281 398.71256534 381.55263315 405.3125 388.23828125 C406.38951172 389.31722656 406.38951172 389.31722656 407.48828125 390.41796875 C444.44893834 429.67477888 459.86215376 491.81902733 469.74609375 543.42333984 C470.47899532 547.06573429 471.36514567 550.64622941 472.3125 554.23828125 C476.76470512 550.75592783 480.17463818 547.18144961 483.5625 542.67578125 C484.52709337 541.4193795 485.49326789 540.16419024 486.4609375 538.91015625 C486.94014648 538.28818359 487.41935547 537.66621094 487.91308594 537.02539062 C489.93999116 534.4369492 492.06127784 531.93292269 494.1875 529.42578125 C500.49779865 521.901198 506.40953504 514.08414374 512.3125 506.23828125 C512.86953613 505.50222656 513.42657227 504.76617188 514.00048828 504.0078125 C556.60121285 447.61690248 590.65899748 382.48839103 599.98779297 311.66015625 C600.2823489 309.46316765 600.60899456 307.27352512 600.94140625 305.08203125 C609.42849091 244.2352828 593.97173176 179.59726932 557.3125 130.23828125 C551.68045246 122.92309306 545.61024978 115.9858703 539.3125 109.23828125 C538.55453125 108.42617187 537.7965625 107.6140625 537.015625 106.77734375 C530.32737955 99.84867117 523.04609463 93.941082 515.3125 88.23828125 C514.74466797 87.81546875 514.17683594 87.39265625 513.59179688 86.95703125 C484.36264919 65.47981596 446.7067629 53.73744099 410.625 53.92578125 C409.87893494 53.9279364 409.13286987 53.93009155 408.36419678 53.93231201 C396.80301399 53.98579164 385.57452525 54.4372457 374.3125 57.23828125 C373.11294678 57.53629639 373.11294678 57.53629639 371.88916016 57.84033203 C359.46718924 61.04607941 347.82208048 65.60549616 336.3125 71.23828125 C335.58401855 71.59293457 334.85553711 71.94758789 334.10498047 72.31298828 C311.51696303 83.44425912 290.34081273 99.74142704 274.3125 119.23828125 C273.23162109 120.48738281 273.23162109 120.48738281 272.12890625 121.76171875 C262.41737212 133.10479061 253.93167399 145.36701647 245.5 157.67578125 C245.04850586 158.33263916 244.59701172 158.98949707 244.13183594 159.66625977 C242.11494275 162.60144041 240.11000322 165.54166353 238.1328125 168.50390625 C233.30209859 175.53381676 228.9994503 179.26976212 221.1875 182.55078125 C211.33747099 184.29836704 202.14160014 184.2268442 193.3125 179.23828125 C187.21338391 174.76409016 183.02118031 169.47441495 178.9375 163.17578125 C177.80968361 161.4836481 176.68076803 159.79224707 175.55078125 158.1015625 C175.00244629 157.27479004 174.45411133 156.44801758 173.88916016 155.59619141 C158.24914719 132.20640429 140.62904124 109.58869371 118.3125 92.23828125 C117.35472656 91.48675781 116.39695312 90.73523438 115.41015625 89.9609375 C84.91985664 66.52227092 49.28376 53.74838069 10.8125 53.86328125 C10.02569855 53.86482208 9.23889709 53.86636292 8.42825317 53.86795044 C-29.47699231 54.04379038 -65.298178 66.55992945 -95.6875 89.23828125 Z " fill="#FE4473" transform="translate(301.6875,78.76171875)"/>
<path d="M0 0 C17.94104166 14.43590951 29.97251495 34.22575538 34 57 C34.80899485 69.79560185 34.78636925 82.67903231 31 95 C30.6596875 96.15371094 30.319375 97.30742187 29.96875 98.49609375 C25.69581186 111.67579823 18.59947444 122.12916232 9 132 C8.35289062 132.70898438 7.70578125 133.41796875 7.0390625 134.1484375 C-6.24115924 148.29593903 -27.38869119 157.52039989 -46.64453125 158.37890625 C-59.27737549 158.69721013 -71.1005882 158.62196695 -83 154 C-84.77310547 153.34644531 -84.77310547 153.34644531 -86.58203125 152.6796875 C-110.08194481 143.36119523 -126.93949868 125.83772641 -137.17480469 102.96630859 C-145.71655567 82.61268067 -145.7749185 58.29193071 -137.6875 37.8125 C-127.38323692 14.71991041 -110.61673024 -3.28811245 -87 -13 C-57.47715827 -23.33124355 -25.03351121 -19.18238508 0 0 Z " fill="#FE4473" transform="translate(627,291)"/>
</svg>