<svg width="51" height="46" viewBox="0 0 51 46" fill="none" xmlns="http://www.w3.org/2000/svg">
<path id="Subtract" d="M38.25 0C45.2905 3.87157e-07 50.9999 5.71617 51 12.7686C51 18.4616 48.7713 31.9732 26.8057 45.6318C26.4118 45.8726 25.9602 46 25.5 46C25.0398 46 24.5882 45.8726 24.1943 45.6318C2.23128 31.9732 0 18.4616 0 12.7686C7.4691e-05 5.71617 5.7095 0 12.75 0C19.7695 1.74188e-07 25.466 7.69226 25.5 7.73828C25.5341 7.69221 31.2305 0 38.25 0ZM38.8623 23C38.5874 23 38.312 23.0504 38.0371 23.1504C37.7623 23.2504 37.512 23.4128 37.2871 23.6377L29.9004 31.0254C29.6264 31.2994 29.4071 31.6175 29.2441 31.9805C29.0812 32.3434 29 32.725 29 33.125V35C29.001 35.424 29.1446 35.7804 29.4316 36.0684C29.7186 36.3564 30.075 36.5 30.5 36.5H32.375C32.776 36.5 33.1576 36.4254 33.5195 36.2754C33.8814 36.1254 34.1997 35.9126 34.4746 35.6377L41.8623 28.25C42.0882 28.0261 42.2506 27.7702 42.3496 27.4824C42.4486 27.1945 42.499 26.9126 42.5 26.6377C42.501 26.3627 42.445 26.0875 42.332 25.8125C42.219 25.5375 42.0623 25.2875 41.8623 25.0625L40.4746 23.6748C40.2497 23.451 39.9995 23.2829 39.7246 23.1699C39.4497 23.057 39.1622 23 38.8623 23ZM26 24.5C24.35 24.501 22.725 24.695 21.125 25.082C19.5251 25.469 17.9503 26.0503 16.4004 26.8252C15.6764 27.2012 15.0952 27.7451 14.6572 28.457C14.2193 29.169 14 29.9499 14 30.7998V33.5C14.001 33.924 14.1446 34.2804 14.4316 34.5684C14.7186 34.8564 15.075 35 15.5 35H26V32.5254C26 31.9254 26.1129 31.3498 26.3379 30.7998C26.5629 30.25 26.8877 29.7628 27.3125 29.3379L31.4375 25.2129C30.5375 24.9639 29.6373 24.7829 28.7373 24.6699C27.8373 24.5569 26.925 24.5 26 24.5ZM40.25 26.6377L38.8623 28.0996L37.4375 26.6748L38.8623 25.25L40.25 26.6377ZM26 11C24.35 11 22.9377 11.5877 21.7627 12.7627C20.5877 13.9377 20 15.35 20 17C20 18.65 20.5877 20.0623 21.7627 21.2373C22.9377 22.4123 24.35 23 26 23C27.65 23 29.0623 22.4123 30.2373 21.2373C31.4123 20.0623 32 18.65 32 17C32 15.35 31.4123 13.9377 30.2373 12.7627C29.0623 11.5877 27.65 11 26 11Z" fill="#F24171"/>
</svg>
