<svg width="56" height="51" viewBox="0 0 56 51" fill="none" xmlns="http://www.w3.org/2000/svg">
<g id="Subtract" filter="url(#filter0_d_47_253)">
<path d="M41 2C48.1786 2 54 7.8288 54 15.0195C53.9999 20.8245 51.7268 34.6003 29.3311 48.5264C28.9294 48.7719 28.4693 48.9023 28 48.9023C27.5307 48.9023 27.0706 48.7719 26.6689 48.5264C4.2758 34.6003 2.00012 20.8245 2 15.0195C2 7.8288 7.8214 2 15 2C22.1786 2 28 9.89062 28 9.89062C28 9.89062 33.8214 2 41 2ZM41.625 25.4512C41.3446 25.4512 41.0636 25.5016 40.7832 25.6035C40.5029 25.7055 40.2479 25.8713 40.0186 26.1006L32.4863 33.6338C32.2071 33.913 31.9845 34.2375 31.8184 34.6074C31.6522 34.9775 31.5684 35.3666 31.5684 35.7744V37.6865C31.5694 38.1187 31.7163 38.4818 32.0088 38.7754C32.3013 39.069 32.6645 39.2157 33.0977 39.2158H35.0098C35.4186 39.2158 35.8077 39.1393 36.1768 38.9863C36.5459 38.8334 36.871 38.6163 37.1514 38.3359L44.6836 30.8037C44.9139 30.5754 45.0798 30.3141 45.1807 30.0205C45.2815 29.7271 45.3319 29.4403 45.333 29.1602C45.334 28.8798 45.2773 28.5988 45.1621 28.3184C45.0469 28.0381 44.8875 27.7831 44.6836 27.5537L43.2686 26.1396C43.0392 25.9113 42.7843 25.7392 42.5039 25.624C42.2237 25.5089 41.9307 25.4512 41.625 25.4512ZM28.5098 26.9805C26.8274 26.9815 25.1704 27.1796 23.5391 27.5742C21.9079 27.9688 20.3019 28.5605 18.7217 29.3506C17.9836 29.7339 17.3909 30.2888 16.9443 31.0146C16.4977 31.7406 16.2744 32.5376 16.2744 33.4043V36.1572C16.2755 36.5894 16.4223 36.9525 16.7148 37.2461C17.0074 37.5396 17.3705 37.6865 17.8037 37.6865H28.5098V35.1631C28.5098 34.5515 28.6242 33.9649 28.8535 33.4043C29.0829 32.8437 29.4145 32.3463 29.8477 31.9131L34.0537 27.707C33.1361 27.4532 32.2184 27.2685 31.3008 27.1533C30.3832 27.0381 29.4528 26.9805 28.5098 26.9805ZM43.0391 29.1602L41.625 30.6514L40.1719 29.1982L41.625 27.7451L43.0391 29.1602ZM28.5098 13.2158C26.8275 13.2158 25.3875 13.8148 24.1895 15.0127C22.9915 16.2107 22.3927 17.6508 22.3926 19.333C22.3926 21.0154 22.9914 22.4563 24.1895 23.6543C25.3874 24.8521 26.8276 25.4512 28.5098 25.4512C30.192 25.4512 31.6321 24.8521 32.8301 23.6543C34.0281 22.4563 34.6279 21.0154 34.6279 19.333C34.6279 17.6508 34.028 16.2107 32.8301 15.0127C31.6321 13.8148 30.192 13.2158 28.5098 13.2158Z" fill="#F24171"/>
<path d="M41 2L41 1.5H41V2ZM54 15.0195L54.5 15.0195V15.0195H54ZM29.3311 48.5264L29.5918 48.953L29.5951 48.951L29.3311 48.5264ZM28 48.9023L28 49.4023L28 49.4023L28 48.9023ZM26.6689 48.5264L26.4049 48.951L26.4082 48.953L26.6689 48.5264ZM2 15.0195L1.5 15.0195L1.5 15.0195L2 15.0195ZM15 2L15 1.5H15V2ZM28 9.89062L27.5976 10.1875C27.6919 10.3152 27.8412 10.3906 28 10.3906C28.1588 10.3906 28.3081 10.3152 28.4024 10.1875L28 9.89062ZM41.625 25.4512L41.6251 24.9512H41.625V25.4512ZM40.7832 25.6035L40.6123 25.1336L40.6123 25.1336L40.7832 25.6035ZM40.0186 26.1006L39.665 25.747L39.665 25.7471L40.0186 26.1006ZM32.4863 33.6338L32.1328 33.2803L32.1327 33.2803L32.4863 33.6338ZM31.8184 34.6074L31.3623 34.4026L31.3622 34.4026L31.8184 34.6074ZM31.5684 35.7744L31.0684 35.7744V35.7744H31.5684ZM31.5684 37.6865L31.0684 37.6865L31.0684 37.6878L31.5684 37.6865ZM32.0088 38.7754L31.6546 39.1283L31.6546 39.1283L32.0088 38.7754ZM33.0977 39.2158L33.0976 39.7158H33.0977V39.2158ZM35.0098 39.2158V38.7158V39.2158ZM36.1768 38.9863L36.3682 39.4482L36.3682 39.4482L36.1768 38.9863ZM44.6836 30.8037L44.3316 30.4486L44.33 30.4502L44.6836 30.8037ZM45.1807 30.0205L45.6535 30.183L45.6535 30.183L45.1807 30.0205ZM45.333 29.1602L45.833 29.162L45.833 29.162L45.333 29.1602ZM45.1621 28.3184L45.6246 28.1283L45.6246 28.1283L45.1621 28.3184ZM44.6836 27.5537L45.0573 27.2215C45.0508 27.2142 45.044 27.207 45.037 27.2L44.6836 27.5537ZM43.2686 26.1396L43.622 25.786L43.6213 25.7853L43.2686 26.1396ZM42.5039 25.624L42.694 25.1616L42.6939 25.1615L42.5039 25.624ZM28.5098 26.9805L28.5098 26.4805L28.5095 26.4805L28.5098 26.9805ZM23.5391 27.5742L23.4215 27.0882L23.4215 27.0882L23.5391 27.5742ZM18.7217 29.3506L18.4981 28.9033L18.4912 28.9069L18.7217 29.3506ZM16.9443 31.0146L16.5185 30.7526L16.5185 30.7527L16.9443 31.0146ZM16.2744 36.1572H15.7744L15.7744 36.1585L16.2744 36.1572ZM16.7148 37.2461L16.3607 37.599L16.3607 37.5991L16.7148 37.2461ZM17.8037 37.6865L17.8037 38.1865H17.8037V37.6865ZM28.5098 37.6865V38.1865C28.7859 38.1865 29.0098 37.9627 29.0098 37.6865H28.5098ZM28.8535 33.4043L28.3907 33.215L28.3907 33.215L28.8535 33.4043ZM29.8477 31.9131L29.4941 31.5595L29.4941 31.5596L29.8477 31.9131ZM34.0537 27.707L34.4073 28.0606C34.5331 27.9348 34.5825 27.7516 34.5372 27.5796C34.4918 27.4075 34.3585 27.2726 34.187 27.2251L34.0537 27.707ZM31.3008 27.1533L31.3631 26.6572L31.3631 26.6572L31.3008 27.1533ZM43.0391 29.1602L43.4019 29.5042C43.5883 29.3076 43.5842 28.9984 43.3927 28.8067L43.0391 29.1602ZM41.625 30.6514L41.2714 31.0049C41.3668 31.1003 41.4967 31.1531 41.6316 31.1513C41.7665 31.1495 41.895 31.0933 41.9878 30.9954L41.625 30.6514ZM40.1719 29.1982L39.8183 28.8447C39.6231 29.04 39.6231 29.3565 39.8183 29.5518L40.1719 29.1982ZM41.625 27.7451L41.9787 27.3917C41.8849 27.2979 41.7577 27.2451 41.6251 27.2451C41.4924 27.2451 41.3652 27.2978 41.2714 27.3916L41.625 27.7451ZM28.5098 13.2158L28.5098 12.7158L28.5098 12.7158L28.5098 13.2158ZM24.1895 15.0127L23.8359 14.6591L23.8359 14.6591L24.1895 15.0127ZM22.3926 19.333L21.8926 19.333V19.333H22.3926ZM24.1895 23.6543L23.8359 24.0079L23.8359 24.0079L24.1895 23.6543ZM28.5098 25.4512L28.5098 25.9512H28.5098V25.4512ZM32.8301 23.6543L33.1836 24.0079L33.1836 24.0079L32.8301 23.6543ZM34.6279 19.333L35.1279 19.333L35.1279 19.333L34.6279 19.333ZM32.8301 15.0127L33.1836 14.6591L33.1836 14.6591L32.8301 15.0127ZM41 2L41 2.5C47.9018 2.5 53.5 8.10427 53.5 15.0195H54H54.5C54.5 7.55333 48.4554 1.5 41 1.5L41 2ZM54 15.0195L53.5 15.0195C53.4999 17.8505 52.9472 22.6574 49.6295 28.48C46.3102 34.3052 40.208 41.1741 29.067 48.1018L29.3311 48.5264L29.5951 48.951C40.8499 41.9525 47.0821 34.9705 50.4983 28.9751C53.9161 22.977 54.4999 17.9934 54.5 15.0195L54 15.0195ZM29.3311 48.5264L29.0703 48.0998C28.7465 48.2977 28.3764 48.4023 28 48.4023L28 48.9023L28 49.4023C28.5621 49.4023 29.1124 49.246 29.5918 48.953L29.3311 48.5264ZM28 48.9023L28 48.4023C27.6236 48.4023 27.2535 48.2977 26.9297 48.0998L26.6689 48.5264L26.4082 48.953C26.8876 49.246 27.4379 49.4023 28 49.4023L28 48.9023ZM26.6689 48.5264L26.933 48.1018C15.7934 41.1742 9.69109 34.3052 6.3715 28.48C3.0534 22.6573 2.50006 17.8505 2.5 15.0195L2 15.0195L1.5 15.0195C1.50006 17.9935 2.08462 22.977 5.50267 28.9751C8.91924 34.9705 15.1514 41.9525 26.4049 48.951L26.6689 48.5264ZM2 15.0195H2.5C2.5 8.10427 8.09822 2.5 15 2.5V2V1.5C7.54458 1.5 1.5 7.55333 1.5 15.0195H2ZM15 2L15 2.5C18.4133 2.5 21.5497 4.38234 23.8707 6.32845C25.0239 7.2954 25.9585 8.26354 26.6046 8.99C26.9274 9.3529 27.1774 9.65463 27.3459 9.86457C27.4302 9.96952 27.494 10.0515 27.5363 10.1066C27.5575 10.1341 27.5733 10.155 27.5835 10.1686C27.5887 10.1754 27.5924 10.1805 27.5948 10.1836C27.596 10.1852 27.5968 10.1863 27.5973 10.187C27.5975 10.1873 27.5977 10.1875 27.5977 10.1876C27.5978 10.1876 27.5977 10.1876 27.5978 10.1876C27.5977 10.1876 27.5976 10.1875 28 9.89062C28.4024 9.59379 28.4022 9.59364 28.4021 9.59346C28.402 9.59336 28.4019 9.59316 28.4017 9.59296C28.4014 9.59257 28.4011 9.59205 28.4006 9.59142C28.3997 9.59015 28.3984 9.58841 28.3967 9.5862C28.3934 9.58177 28.3887 9.57548 28.3826 9.56737C28.3704 9.55115 28.3526 9.52768 28.3294 9.49744C28.283 9.43696 28.2147 9.34938 28.1258 9.23858C27.9479 9.017 27.687 8.70227 27.3519 8.32543C26.6821 7.5724 25.7127 6.56788 24.5132 5.56217C22.1289 3.56297 18.7653 1.5 15 1.5L15 2ZM28 9.89062C28.4024 10.1875 28.4023 10.1876 28.4022 10.1876C28.4023 10.1876 28.4022 10.1876 28.4023 10.1876C28.4023 10.1875 28.4025 10.1873 28.4027 10.187C28.4032 10.1863 28.404 10.1852 28.4052 10.1836C28.4076 10.1805 28.4113 10.1754 28.4165 10.1686C28.4267 10.155 28.4425 10.1341 28.4637 10.1066C28.506 10.0515 28.5698 9.96952 28.6541 9.86457C28.8226 9.65463 29.0726 9.3529 29.3954 8.99C30.0415 8.26354 30.9761 7.2954 32.1293 6.32845C34.4503 4.38234 37.5867 2.5 41 2.5V2V1.5C37.2347 1.5 33.8711 3.56297 31.4868 5.56217C30.2873 6.56788 29.3179 7.5724 28.6481 8.32543C28.313 8.70227 28.0521 9.017 27.8742 9.23858C27.7853 9.34938 27.717 9.43696 27.6706 9.49744C27.6474 9.52768 27.6296 9.55115 27.6174 9.56737C27.6113 9.57548 27.6066 9.58177 27.6033 9.5862C27.6016 9.58841 27.6003 9.59015 27.5994 9.59142C27.5989 9.59205 27.5986 9.59257 27.5983 9.59296C27.5981 9.59316 27.598 9.59336 27.5979 9.59346C27.5978 9.59364 27.5976 9.59379 28 9.89062ZM41.625 25.4512V24.9512C41.2835 24.9512 40.9448 25.0127 40.6123 25.1336L40.7832 25.6035L40.9541 26.0734C41.1824 25.9904 41.4057 25.9512 41.625 25.9512V25.4512ZM40.7832 25.6035L40.6123 25.1336C40.2574 25.2627 39.9414 25.4707 39.665 25.747L40.0186 26.1006L40.3721 26.4542C40.5544 26.2718 40.7483 26.1482 40.9541 26.0734L40.7832 25.6035ZM40.0186 26.1006L39.665 25.7471L32.1328 33.2803L32.4863 33.6338L32.8399 33.9873L40.3721 26.4541L40.0186 26.1006ZM32.4863 33.6338L32.1327 33.2803C31.8095 33.6036 31.5526 33.9788 31.3623 34.4026L31.8184 34.6074L32.2745 34.8123C32.4164 34.4962 32.6048 34.2225 32.8399 33.9873L32.4863 33.6338ZM31.8184 34.6074L31.3622 34.4026C31.1672 34.8369 31.0684 35.2958 31.0684 35.7744L31.5684 35.7744L32.0684 35.7744C32.0684 35.4374 32.1371 35.1181 32.2745 34.8122L31.8184 34.6074ZM31.5684 35.7744H31.0684V37.6865H31.5684H32.0684V35.7744H31.5684ZM31.5684 37.6865L31.0684 37.6878C31.0697 38.2455 31.2646 38.7369 31.6546 39.1283L32.0088 38.7754L32.363 38.4225C32.1679 38.2267 32.0691 37.9919 32.0684 37.6853L31.5684 37.6865ZM32.0088 38.7754L31.6546 39.1283C32.0457 39.5207 32.5384 39.7157 33.0976 39.7158L33.0977 39.2158L33.0978 38.7158C32.7906 38.7158 32.557 38.6172 32.363 38.4225L32.0088 38.7754ZM33.0977 39.2158V39.7158H35.0098V39.2158V38.7158H33.0977V39.2158ZM35.0098 39.2158L35.0098 39.7158C35.4828 39.7158 35.937 39.6269 36.3682 39.4482L36.1768 38.9863L35.9854 38.5244C35.6783 38.6516 35.3545 38.7158 35.0098 38.7158L35.0098 39.2158ZM36.1768 38.9863L36.3682 39.4482C36.7975 39.2703 37.1778 39.0166 37.5049 38.6895L37.1514 38.3359L36.7978 37.9824C36.5641 38.2161 36.2942 38.3964 35.9854 38.5244L36.1768 38.9863ZM37.1514 38.3359L37.5049 38.6895L45.0371 31.1573L44.6836 30.8037L44.33 30.4502L36.7978 37.9824L37.1514 38.3359ZM44.6836 30.8037L45.0356 31.1588C45.3179 30.8789 45.5265 30.5525 45.6535 30.183L45.1807 30.0205L44.7078 29.858C44.633 30.0756 44.5099 30.2719 44.3316 30.4486L44.6836 30.8037ZM45.1807 30.0205L45.6535 30.183C45.7704 29.8429 45.8317 29.5019 45.833 29.162L45.333 29.1602L44.833 29.1583C44.8322 29.3787 44.7926 29.6114 44.7078 29.858L45.1807 30.0205ZM45.333 29.1602L45.833 29.162C45.8343 28.8112 45.763 28.4652 45.6246 28.1283L45.1621 28.3184L44.6996 28.5084C44.7916 28.7323 44.8338 28.9483 44.833 29.1583L45.333 29.1602ZM45.1621 28.3184L45.6246 28.1283C45.4878 27.7955 45.2982 27.4925 45.0573 27.2215L44.6836 27.5537L44.3099 27.8859C44.4767 28.0736 44.606 28.2806 44.6996 28.5084L45.1621 28.3184ZM44.6836 27.5537L45.037 27.2L43.622 25.786L43.2686 26.1396L42.9151 26.4933L44.3302 27.9074L44.6836 27.5537ZM43.2686 26.1396L43.6213 25.7853C43.3487 25.5139 43.0394 25.3035 42.694 25.1616L42.5039 25.624L42.3139 26.0865C42.5292 26.175 42.7296 26.3087 42.9158 26.494L43.2686 26.1396ZM42.5039 25.624L42.6939 25.1615C42.3529 25.0214 41.9954 24.9512 41.6251 24.9512L41.625 25.4512L41.6249 25.9512C41.866 25.9512 42.0944 25.9963 42.3139 26.0865L42.5039 25.624ZM28.5098 26.9805L28.5095 26.4805C26.7877 26.4815 25.0913 26.6844 23.4215 27.0882L23.5391 27.5742L23.6566 28.0602C25.2496 27.6749 26.8672 27.4815 28.5101 27.4805L28.5098 26.9805ZM23.5391 27.5742L23.4215 27.0882C21.7518 27.4921 20.1104 28.0972 18.4981 28.9034L18.7217 29.3506L18.9453 29.7978C20.4934 29.0238 22.0639 28.4455 23.6566 28.0602L23.5391 27.5742ZM18.7217 29.3506L18.4912 28.9069C17.6707 29.333 17.0113 29.9516 16.5185 30.7526L16.9443 31.0146L17.3702 31.2767C17.7705 30.626 18.2965 30.1348 18.9521 29.7943L18.7217 29.3506ZM16.9443 31.0146L16.5185 30.7527C16.0225 31.5589 15.7744 32.4468 15.7744 33.4043H16.2744H16.7744C16.7744 32.6284 16.973 31.9224 17.3702 31.2766L16.9443 31.0146ZM16.2744 33.4043H15.7744V36.1572H16.2744H16.7744V33.4043H16.2744ZM16.2744 36.1572L15.7744 36.1585C15.7758 36.7161 15.9706 37.2076 16.3607 37.599L16.7148 37.2461L17.069 36.8932C16.874 36.6974 16.7752 36.4627 16.7744 36.156L16.2744 36.1572ZM16.7148 37.2461L16.3607 37.5991C16.7517 37.9914 17.2443 38.1865 17.8037 38.1865L17.8037 37.6865L17.8038 37.1865C17.4967 37.1865 17.2631 37.0879 17.069 36.8931L16.7148 37.2461ZM17.8037 37.6865V38.1865H28.5098V37.6865V37.1865H17.8037V37.6865ZM28.5098 37.6865H29.0098V35.1631H28.5098H28.0098V37.6865H28.5098ZM28.5098 35.1631H29.0098C29.0098 34.6156 29.1119 34.0934 29.3163 33.5936L28.8535 33.4043L28.3907 33.215C28.1366 33.8365 28.0098 34.4874 28.0098 35.1631H28.5098ZM28.8535 33.4043L29.3163 33.5936C29.5202 33.0952 29.8144 32.6535 30.2012 32.2666L29.8477 31.9131L29.4941 31.5596C29.0146 32.0392 28.6455 32.5921 28.3907 33.215L28.8535 33.4043ZM29.8477 31.9131L30.2012 32.2666L34.4073 28.0606L34.0537 27.707L33.7002 27.3535L29.4941 31.5595L29.8477 31.9131ZM34.0537 27.707L34.187 27.2251C33.2468 26.965 32.3054 26.7755 31.3631 26.6572L31.3008 27.1533L31.2385 27.6494C32.1314 27.7615 33.0254 27.9413 33.9204 28.1889L34.0537 27.707ZM31.3008 27.1533L31.3631 26.6572C30.4244 26.5394 29.4733 26.4805 28.5098 26.4805V26.9805V27.4805C29.4324 27.4805 30.342 27.5369 31.2385 27.6494L31.3008 27.1533ZM43.0391 29.1602L42.6762 28.8161L41.2622 30.3073L41.625 30.6514L41.9878 30.9954L43.4019 29.5042L43.0391 29.1602ZM41.625 30.6514L41.9786 30.2978L40.5254 28.8447L40.1719 29.1982L39.8183 29.5518L41.2714 31.0049L41.625 30.6514ZM40.1719 29.1982L40.5254 29.5518L41.9786 28.0987L41.625 27.7451L41.2714 27.3916L39.8183 28.8447L40.1719 29.1982ZM41.625 27.7451L41.2713 28.0985L42.6854 29.5136L43.0391 29.1602L43.3927 28.8067L41.9787 27.3917L41.625 27.7451ZM28.5098 13.2158L28.5098 12.7158C26.6938 12.7158 25.1269 13.3682 23.8359 14.6591L24.1895 15.0127L24.543 15.3663C25.648 14.2613 26.9612 13.7158 28.5098 13.7158L28.5098 13.2158ZM24.1895 15.0127L23.8359 14.6591C22.5449 15.9501 21.8927 17.5172 21.8926 19.333L22.3926 19.333L22.8926 19.333C22.8926 17.7844 23.4381 16.4712 24.543 15.3662L24.1895 15.0127ZM22.3926 19.333H21.8926C21.8926 21.1489 22.5448 22.7167 23.8359 24.0079L24.1895 23.6543L24.543 23.3007C23.4381 22.1958 22.8926 20.8818 22.8926 19.333H22.3926ZM24.1895 23.6543L23.8359 24.0079C25.1269 25.2987 26.6939 25.9512 28.5098 25.9512L28.5098 25.4512L28.5098 24.9512C26.9612 24.9512 25.6479 24.4056 24.543 23.3007L24.1895 23.6543ZM28.5098 25.4512V25.9512C30.3256 25.9512 31.8926 25.2987 33.1836 24.0079L32.8301 23.6543L32.4765 23.3007C31.3716 24.4055 30.0583 24.9512 28.5098 24.9512V25.4512ZM32.8301 23.6543L33.1836 24.0079C34.4746 22.7169 35.1279 21.1491 35.1279 19.333H34.6279H34.1279C34.1279 20.8816 33.5816 22.1956 32.4765 23.3007L32.8301 23.6543ZM34.6279 19.333L35.1279 19.333C35.1278 17.517 34.4745 15.95 33.1836 14.6591L32.8301 15.0127L32.4765 15.3662C33.5816 16.4713 34.1279 17.7846 34.1279 19.333L34.6279 19.333ZM32.8301 15.0127L33.1836 14.6591C31.8926 13.3682 30.3257 12.7158 28.5098 12.7158V13.2158V13.7158C30.0584 13.7158 31.3715 14.2614 32.4765 15.3663L32.8301 15.0127Z" fill="#FECFD4"/>
</g>
<defs>
<filter id="filter0_d_47_253" x="0.5" y="0.6" width="55" height="49.9023" filterUnits="userSpaceOnUse" color-interpolation-filters="sRGB">
<feFlood flood-opacity="0" result="BackgroundImageFix"/>
<feColorMatrix in="SourceAlpha" type="matrix" values="0 0 0 0 0 0 0 0 0 0 0 0 0 0 0 0 0 0 127 0" result="hardAlpha"/>
<feOffset dy="0.1"/>
<feGaussianBlur stdDeviation="0.5"/>
<feComposite in2="hardAlpha" operator="out"/>
<feColorMatrix type="matrix" values="0 0 0 0 0 0 0 0 0 0 0 0 0 0 0 0 0 0 0.25 0"/>
<feBlend mode="normal" in2="BackgroundImageFix" result="effect1_dropShadow_47_253"/>
<feBlend mode="normal" in="SourceGraphic" in2="effect1_dropShadow_47_253" result="shape"/>
</filter>
</defs>
</svg>
