<svg width="35" height="32" viewBox="0 0 35 32" fill="none" xmlns="http://www.w3.org/2000/svg">
<g id="Subtract" filter="url(#filter0_d_47_261)">
<path d="M25.2822 2C29.5678 2 33.043 5.47969 33.043 9.77246C33.0429 13.2379 31.6862 21.4617 18.3164 29.7754C18.0766 29.9219 17.8016 30 17.5215 30C17.2414 30 16.9663 29.9219 16.7266 29.7754C3.35853 21.4618 2.00007 13.2379 2 9.77246C2 5.47972 5.47525 2.00005 9.76074 2C14.0239 2 17.4855 6.66135 17.5215 6.70996C17.5488 6.67296 21.0138 2.00019 25.2822 2ZM25.6553 16C25.488 16 25.3206 16.03 25.1533 16.0908C24.9859 16.1517 24.8332 16.2507 24.6963 16.3877L20.2002 20.8848C20.0335 21.0515 19.9 21.245 19.8008 21.4658C19.7016 21.6868 19.6523 21.9196 19.6523 22.1631V23.3047C19.6531 23.5625 19.7405 23.7789 19.915 23.9541C20.0897 24.1294 20.3067 24.2168 20.5654 24.2168H21.7061C21.9501 24.2168 22.183 24.1714 22.4033 24.0801C22.6235 23.9888 22.8171 23.8596 22.9844 23.6924L27.4814 19.1953C27.6189 19.0591 27.7181 18.9036 27.7783 18.7285C27.8386 18.5532 27.8685 18.3813 27.8691 18.2139C27.8697 18.0466 27.8363 17.8792 27.7676 17.7119C27.6988 17.5445 27.6032 17.3918 27.4814 17.2549L26.6367 16.4111C26.4999 16.2749 26.3479 16.1723 26.1807 16.1035C26.0133 16.0347 25.8379 16 25.6553 16ZM17.8262 16.9131C16.8218 16.9137 15.8323 17.032 14.8584 17.2676C13.8846 17.5031 12.9258 17.8564 11.9824 18.3281C11.5419 18.5569 11.1884 18.8881 10.9219 19.3213C10.6553 19.7547 10.5215 20.2307 10.5215 20.748V22.3916C10.5222 22.6495 10.6106 22.8658 10.7852 23.041C10.9598 23.2162 11.176 23.3046 11.4346 23.3047H17.8262V21.7979C17.8262 21.4328 17.8944 21.0827 18.0312 20.748C18.1682 20.4133 18.3663 20.1161 18.625 19.8574L21.1357 17.3467C20.5879 17.1951 20.04 17.0844 19.4922 17.0156C18.9445 16.9469 18.3891 16.9131 17.8262 16.9131ZM26.5 18.2139L25.6553 19.1045L24.7881 18.2373L25.6553 17.3691L26.5 18.2139ZM17.8262 8.69531C16.8219 8.69531 15.9623 9.05341 15.2471 9.76855C14.5319 10.4837 14.1738 11.3433 14.1738 12.3477C14.1738 13.352 14.5319 14.2115 15.2471 14.9268C15.9623 15.642 16.8218 16 17.8262 16C18.8305 16 19.6901 15.6419 20.4053 14.9268C21.1204 14.2116 21.4785 13.352 21.4785 12.3477C21.4785 11.3434 21.1205 10.4837 20.4053 9.76855C19.6901 9.05337 18.8305 8.69534 17.8262 8.69531Z" fill="#F24171"/>
<path d="M25.2822 2L25.2822 1.5L25.2822 1.5L25.2822 2ZM33.043 9.77246L33.543 9.77247V9.77246H33.043ZM18.3164 29.7754L18.5772 30.202L18.5804 30.2L18.3164 29.7754ZM17.5215 30L17.5214 30.5H17.5215L17.5215 30ZM16.7266 29.7754L16.4625 30.2L16.4658 30.202L16.7266 29.7754ZM2 9.77246L1.5 9.77246L1.5 9.77247L2 9.77246ZM9.76074 2L9.76074 1.5L9.76074 1.5L9.76074 2ZM17.5215 6.70996L17.1196 7.00743C17.2139 7.13484 17.3631 7.20999 17.5216 7.20996C17.6801 7.20993 17.8292 7.13473 17.9235 7.00728L17.5215 6.70996ZM25.6553 16L25.6553 15.5L25.6552 15.5L25.6553 16ZM25.1533 16.0908L24.9825 15.6209L24.9824 15.6209L25.1533 16.0908ZM24.6963 16.3877L24.3427 16.0341L24.3427 16.0342L24.6963 16.3877ZM20.2002 20.8848L20.5537 21.2383L20.5538 21.2383L20.2002 20.8848ZM19.8008 21.4658L19.3447 21.2609L19.3447 21.261L19.8008 21.4658ZM19.6523 23.3047L19.1523 23.3047L19.1523 23.3061L19.6523 23.3047ZM19.915 23.9541L19.5608 24.307L19.5609 24.307L19.915 23.9541ZM21.7061 24.2168V23.7168V24.2168ZM22.4033 24.0801L22.5947 24.542L22.5948 24.542L22.4033 24.0801ZM22.9844 23.6924L23.3379 24.046L23.3379 24.0459L22.9844 23.6924ZM27.4814 19.1953L27.1294 18.8402L27.1279 18.8418L27.4814 19.1953ZM27.7783 18.7285L28.2511 18.8912L28.2512 18.8911L27.7783 18.7285ZM27.8691 18.2139L28.3691 18.2157L28.3691 18.2156L27.8691 18.2139ZM27.7676 17.7119L28.2301 17.5219L28.2301 17.5219L27.7676 17.7119ZM27.4814 17.2549L27.8551 16.9227C27.8486 16.9153 27.8418 16.9081 27.8348 16.9011L27.4814 17.2549ZM26.6367 16.4111L26.9901 16.0574L26.9895 16.0568L26.6367 16.4111ZM26.1807 16.1035L26.3709 15.6411L26.3707 15.641L26.1807 16.1035ZM17.8262 16.9131L17.8262 16.4131L17.8259 16.4131L17.8262 16.9131ZM14.8584 17.2676L14.7409 16.7816L14.7408 16.7816L14.8584 17.2676ZM11.9824 18.3281L11.7588 17.8809L11.752 17.8844L11.9824 18.3281ZM10.9219 19.3213L10.496 19.0593L10.496 19.0593L10.9219 19.3213ZM10.5215 22.3916L10.0215 22.3916L10.0215 22.393L10.5215 22.3916ZM10.7852 23.041L10.431 23.394L10.431 23.394L10.7852 23.041ZM11.4346 23.3047L11.4345 23.8047H11.4346V23.3047ZM17.8262 23.3047V23.8047C18.1023 23.8047 18.3262 23.5808 18.3262 23.3047H17.8262ZM18.0312 20.748L17.5685 20.5587L17.5684 20.5588L18.0312 20.748ZM21.1357 17.3467L21.4893 17.7002C21.6151 17.5744 21.6646 17.3913 21.6192 17.2192C21.5739 17.0472 21.4405 16.9122 21.2691 16.8648L21.1357 17.3467ZM19.4922 17.0156L19.5545 16.5195L19.5545 16.5195L19.4922 17.0156ZM26.5 18.2139L26.8628 18.5579C27.0493 18.3613 27.0452 18.0519 26.8536 17.8603L26.5 18.2139ZM25.6553 19.1045L25.3017 19.458C25.3971 19.5534 25.527 19.6062 25.6619 19.6044C25.7968 19.6027 25.9252 19.5465 26.0181 19.4486L25.6553 19.1045ZM24.7881 18.2373L24.4343 17.884C24.2393 18.0792 24.2393 18.3957 24.4345 18.5909L24.7881 18.2373ZM25.6553 17.3691L26.0088 17.0156C25.915 16.9218 25.7878 16.8691 25.6551 16.8691C25.5225 16.8692 25.3953 16.9219 25.3015 17.0158L25.6553 17.3691ZM17.8262 8.69531L17.8262 8.19531H17.8262V8.69531ZM15.2471 9.76855L14.8935 9.41499L14.8935 9.415L15.2471 9.76855ZM14.1738 12.3477L13.6738 12.3476V12.3477H14.1738ZM15.2471 14.9268L14.8935 15.2803L14.8935 15.2803L15.2471 14.9268ZM17.8262 16L17.8262 16.5L17.8262 16.5L17.8262 16ZM20.4053 14.9268L20.7588 15.2803L20.7588 15.2803L20.4053 14.9268ZM21.4785 12.3477L21.9785 12.3477L21.9785 12.3476L21.4785 12.3477ZM20.4053 9.76855L20.7588 9.415L20.7588 9.415L20.4053 9.76855ZM25.2822 2V2.5C29.2909 2.5 32.543 5.75515 32.543 9.77246H33.043H33.543C33.543 5.20423 29.8446 1.5 25.2822 1.5V2ZM33.043 9.77246L32.543 9.77245C32.5429 11.4337 32.2193 14.2677 30.2589 17.7083C28.297 21.1515 24.6803 25.2294 18.0524 29.3508L18.3164 29.7754L18.5804 30.2C25.3223 26.0078 29.0689 21.8168 31.1278 18.2034C33.1882 14.5873 33.5429 11.5766 33.543 9.77247L33.043 9.77246ZM18.3164 29.7754L18.0556 29.3488C17.8936 29.4478 17.7087 29.5 17.5215 29.5L17.5215 30L17.5215 30.5C17.8946 30.5 18.2597 30.3961 18.5772 30.202L18.3164 29.7754ZM17.5215 30L17.5215 29.5C17.3343 29.5 17.1493 29.4478 16.9873 29.3488L16.7266 29.7754L16.4658 30.202C16.7833 30.3961 17.1485 30.5 17.5214 30.5L17.5215 30ZM16.7266 29.7754L16.9906 29.3508C10.3635 25.2294 6.74685 21.1516 4.78471 17.7083C2.82406 14.2676 2.50003 11.4337 2.5 9.77245L2 9.77246L1.5 9.77247C1.50003 11.5767 1.85527 14.5874 3.91588 18.2034C5.97499 21.8168 9.72156 26.0078 16.4625 30.2L16.7266 29.7754ZM2 9.77246H2.5C2.5 5.75519 5.75207 2.50004 9.76075 2.5L9.76074 2L9.76074 1.5C5.19844 1.50005 1.5 5.20425 1.5 9.77246H2ZM9.76074 2V2.5C11.7171 2.5 13.535 3.57583 14.9058 4.72054C16.2657 5.85608 17.113 6.99856 17.1196 7.00743L17.5215 6.70996L17.9234 6.41249C17.894 6.37275 16.9925 5.16025 15.5468 3.95297C14.112 2.75484 12.0676 1.5 9.76074 1.5V2ZM17.5215 6.70996L17.9235 7.00728C17.9233 7.00757 18.1353 6.72088 18.5185 6.29127C18.9021 5.86128 19.4537 5.29188 20.1321 4.72482C21.5034 3.57864 23.3234 2.50009 25.2822 2.5L25.2822 2L25.2822 1.5C22.9726 1.5001 20.9259 2.75803 19.4908 3.95754C18.0447 5.16625 17.1446 6.3787 17.1195 6.41264L17.5215 6.70996ZM25.6553 16L25.6552 15.5C25.4269 15.5 25.2018 15.5412 24.9825 15.6209L25.1533 16.0908L25.3241 16.5607C25.4394 16.5188 25.5491 16.5 25.6553 16.5L25.6553 16ZM25.1533 16.0908L24.9824 15.6209C24.7408 15.7088 24.527 15.8499 24.3427 16.0341L24.6963 16.3877L25.0498 16.7412C25.1395 16.6516 25.231 16.5946 25.3242 16.5607L25.1533 16.0908ZM24.6963 16.3877L24.3427 16.0342L19.8466 20.5313L20.2002 20.8848L20.5538 21.2383L25.0499 16.7412L24.6963 16.3877ZM20.2002 20.8848L19.8466 20.5312C19.6365 20.7414 19.4684 20.9855 19.3447 21.2609L19.8008 21.4658L20.2569 21.6707C20.3315 21.5045 20.4305 21.3615 20.5537 21.2383L20.2002 20.8848ZM19.8008 21.4658L19.3447 21.261C19.2161 21.5474 19.1523 21.8501 19.1523 22.1631H19.6523H20.1523C20.1523 21.9891 20.1871 21.8262 20.2569 21.6706L19.8008 21.4658ZM19.6523 22.1631H19.1523V23.3047H19.6523H20.1523V22.1631H19.6523ZM19.6523 23.3047L19.1523 23.3061C19.1534 23.6893 19.2888 24.034 19.5608 24.307L19.915 23.9541L20.2693 23.6012C20.1922 23.5239 20.1527 23.4357 20.1523 23.3033L19.6523 23.3047ZM19.915 23.9541L19.5609 24.307C19.8344 24.5815 20.1811 24.7168 20.5654 24.7168V24.2168V23.7168C20.4324 23.7168 20.3451 23.6773 20.2692 23.6012L19.915 23.9541ZM20.5654 24.2168V24.7168H21.7061V24.2168V23.7168H20.5654V24.2168ZM21.7061 24.2168L21.7061 24.7168C22.0137 24.7168 22.3118 24.6592 22.5947 24.542L22.4033 24.0801L22.2119 23.6182C22.0541 23.6835 21.8865 23.7168 21.7061 23.7168L21.7061 24.2168ZM22.4033 24.0801L22.5948 24.542C22.8751 24.4258 23.1239 24.2599 23.3379 24.046L22.9844 23.6924L22.6309 23.3388C22.5103 23.4593 22.3718 23.5519 22.2119 23.6182L22.4033 24.0801ZM22.9844 23.6924L23.3379 24.0459L27.835 19.5489L27.4814 19.1953L27.1279 18.8418L22.6308 23.3388L22.9844 23.6924ZM27.4814 19.1953L27.8335 19.5504C28.0223 19.3632 28.1645 19.1429 28.2511 18.8912L27.7783 18.7285L27.3055 18.5658C27.2716 18.6644 27.2154 18.755 27.1294 18.8402L27.4814 19.1953ZM27.7783 18.7285L28.2512 18.8911C28.3277 18.6684 28.3683 18.4422 28.3691 18.2157L27.8691 18.2139L27.3691 18.212C27.3688 18.3203 27.3495 18.438 27.3055 18.566L27.7783 18.7285ZM27.8691 18.2139L28.3691 18.2156C28.37 17.9786 28.3222 17.7463 28.2301 17.5219L27.7676 17.7119L27.3051 17.9019C27.3504 18.0121 27.3695 18.1145 27.3691 18.2121L27.8691 18.2139ZM27.7676 17.7119L28.2301 17.5219C28.1396 17.3017 28.0138 17.1011 27.8551 16.9227L27.4814 17.2549L27.1077 17.5871C27.1926 17.6825 27.258 17.7873 27.3051 17.902L27.7676 17.7119ZM27.4814 17.2549L27.8348 16.9011L26.9901 16.0574L26.6367 16.4111L26.2834 16.7649L27.1281 17.6086L27.4814 17.2549ZM26.6367 16.4111L26.9895 16.0568C26.8094 15.8775 26.6031 15.7366 26.3709 15.6411L26.1807 16.1035L25.9905 16.5659C26.0927 16.608 26.1903 16.6723 26.284 16.7655L26.6367 16.4111ZM26.1807 16.1035L26.3707 15.641C26.1429 15.5474 25.903 15.5 25.6553 15.5V16V16.5C25.7728 16.5 25.8836 16.522 25.9906 16.566L26.1807 16.1035ZM17.8262 16.9131L17.8259 16.4131C16.7821 16.4137 15.7532 16.5367 14.7409 16.7816L14.8584 17.2676L14.9759 17.7536C15.9114 17.5273 16.8616 17.4137 17.8265 17.4131L17.8262 16.9131ZM14.8584 17.2676L14.7408 16.7816C13.7286 17.0265 12.7343 17.3932 11.7588 17.8809L11.9824 18.3281L12.206 18.7753C13.1173 18.3197 14.0406 17.9798 14.976 17.7536L14.8584 17.2676ZM11.9824 18.3281L11.752 17.8844C11.2289 18.1561 10.8088 18.551 10.496 19.0593L10.9219 19.3213L11.3477 19.5833C11.5681 19.2252 11.8549 18.9578 12.2129 18.7718L11.9824 18.3281ZM10.9219 19.3213L10.496 19.0593C10.1802 19.5727 10.0215 20.1396 10.0215 20.748H10.5215H11.0215C11.0215 20.3217 11.1303 19.9367 11.3477 19.5833L10.9219 19.3213ZM10.5215 20.748H10.0215V22.3916H10.5215H11.0215V20.748H10.5215ZM10.5215 22.3916L10.0215 22.393C10.0225 22.7776 10.1598 23.1218 10.431 23.394L10.7852 23.041L11.1393 22.6881C11.0613 22.6098 11.0218 22.5214 11.0215 22.3902L10.5215 22.3916ZM10.7852 23.041L10.431 23.394C10.7031 23.667 11.0484 23.8046 11.4345 23.8047L11.4346 23.3047L11.4347 22.8047C11.3037 22.8047 11.2164 22.7654 11.1393 22.688L10.7852 23.041ZM11.4346 23.3047V23.8047H17.8262V23.3047V22.8047H11.4346V23.3047ZM17.8262 23.3047H18.3262V21.7979H17.8262H17.3262V23.3047H17.8262ZM17.8262 21.7979H18.3262C18.3262 21.4968 18.3821 21.2111 18.4941 20.9373L18.0312 20.748L17.5684 20.5588C17.4067 20.9543 17.3262 21.3687 17.3262 21.7979H17.8262ZM18.0312 20.748L18.494 20.9374C18.6055 20.6648 18.7663 20.4233 18.9786 20.211L18.625 19.8574L18.2714 19.5039C17.9664 19.809 17.7309 20.1618 17.5685 20.5587L18.0312 20.748ZM18.625 19.8574L18.9786 20.211L21.4893 17.7002L21.1357 17.3467L20.7822 16.9931L18.2714 19.5039L18.625 19.8574ZM21.1357 17.3467L21.2691 16.8648C20.6989 16.7071 20.1273 16.5914 19.5545 16.5195L19.4922 17.0156L19.4299 17.5117C19.9527 17.5774 20.4769 17.6832 21.0024 17.8286L21.1357 17.3467ZM19.4922 17.0156L19.5545 16.5195C18.9853 16.4481 18.4091 16.4131 17.8262 16.4131L17.8262 16.9131L17.8262 17.4131C18.3691 17.4131 18.9036 17.4457 19.4299 17.5117L19.4922 17.0156ZM26.5 18.2139L26.1372 17.8698L25.2925 18.7604L25.6553 19.1045L26.0181 19.4486L26.8628 18.5579L26.5 18.2139ZM25.6553 19.1045L26.0088 18.7509L25.1416 17.8838L24.7881 18.2373L24.4345 18.5909L25.3017 19.458L25.6553 19.1045ZM24.7881 18.2373L25.1418 18.5907L26.009 17.7225L25.6553 17.3691L25.3015 17.0158L24.4343 17.884L24.7881 18.2373ZM25.6553 17.3691L25.3017 17.7227L26.1464 18.5674L26.5 18.2139L26.8536 17.8603L26.0088 17.0156L25.6553 17.3691ZM17.8262 8.69531V8.19531C16.688 8.19531 15.7016 8.60698 14.8935 9.41499L15.2471 9.76855L15.6006 10.1221C16.2229 9.49984 16.9557 9.19531 17.8262 9.19531V8.69531ZM15.2471 9.76855L14.8935 9.415C14.0854 10.2231 13.6739 11.2095 13.6738 12.3476L14.1738 12.3477L14.6738 12.3477C14.6738 11.4772 14.9783 10.7444 15.6006 10.1221L15.2471 9.76855ZM14.1738 12.3477H13.6738C13.6738 13.4858 14.0854 14.4722 14.8935 15.2803L15.2471 14.9268L15.6006 14.5732C14.9783 13.9509 14.6738 13.2182 14.6738 12.3477H14.1738ZM15.2471 14.9268L14.8935 15.2803C15.7016 16.0884 16.688 16.5 17.8262 16.5V16V15.5C16.9557 15.5 16.2229 15.1955 15.6006 14.5732L15.2471 14.9268ZM17.8262 16L17.8262 16.5C18.9643 16.5 19.9507 16.0884 20.7588 15.2803L20.4053 14.9268L20.0517 14.5732C19.4294 15.1955 18.6966 15.5 17.8262 15.5L17.8262 16ZM20.4053 14.9268L20.7588 15.2803C21.5669 14.4722 21.9785 13.4858 21.9785 12.3477H21.4785H20.9785C20.9785 13.2181 20.674 13.9509 20.0517 14.5732L20.4053 14.9268ZM21.4785 12.3477L21.9785 12.3476C21.9785 11.2095 21.5669 10.2231 20.7588 9.415L20.4053 9.76855L20.0517 10.1221C20.674 10.7444 20.9785 11.4772 20.9785 12.3477L21.4785 12.3477ZM20.4053 9.76855L20.7588 9.415C19.9507 8.60692 18.9643 8.19535 17.8262 8.19531L17.8262 8.69531L17.8262 9.19531C18.6966 9.19534 19.4294 9.49982 20.0517 10.1221L20.4053 9.76855Z" fill="#FECFD4"/>
</g>
<defs>
<filter id="filter0_d_47_261" x="0.5" y="0.6" width="34.043" height="31" filterUnits="userSpaceOnUse" color-interpolation-filters="sRGB">
<feFlood flood-opacity="0" result="BackgroundImageFix"/>
<feColorMatrix in="SourceAlpha" type="matrix" values="0 0 0 0 0 0 0 0 0 0 0 0 0 0 0 0 0 0 127 0" result="hardAlpha"/>
<feOffset dy="0.1"/>
<feGaussianBlur stdDeviation="0.5"/>
<feComposite in2="hardAlpha" operator="out"/>
<feColorMatrix type="matrix" values="0 0 0 0 0 0 0 0 0 0 0 0 0 0 0 0 0 0 0.25 0"/>
<feBlend mode="normal" in2="BackgroundImageFix" result="effect1_dropShadow_47_261"/>
<feBlend mode="normal" in="SourceGraphic" in2="effect1_dropShadow_47_261" result="shape"/>
</filter>
</defs>
</svg>
