<svg width="31" height="29" viewBox="0 0 31 29" fill="none" xmlns="http://www.w3.org/2000/svg">
<path id="Subtract" d="M23 0.898438C27.4162 0.898438 30.9999 4.46836 31 8.87598C31 10.6148 30.6562 13.5155 28.6631 16.998C26.6714 20.4779 23.0484 24.5124 16.5312 28.5469L16.5283 28.5488C16.2572 28.7138 15.9508 28.8113 15.6357 28.833L15.5 28.8369C15.1374 28.8369 14.7815 28.7374 14.4717 28.5488L14.4688 28.5469C7.95223 24.5123 4.32873 20.478 2.33691 16.998C0.343663 13.5155 2.31791e-05 10.6148 0 8.87598C7.23625e-05 4.46836 3.58385 0.898438 8 0.898438C10.2458 0.898438 12.2339 2.12079 13.623 3.28027C14.3246 3.8659 14.8918 4.45059 15.2832 4.88867C15.3629 4.97791 15.4349 5.06251 15.5 5.13867C15.5651 5.06251 15.6371 4.97791 15.7168 4.88867C16.1082 4.45059 16.6754 3.8659 17.377 3.28027C18.7661 2.12079 20.7542 0.898438 23 0.898438ZM22.8301 14.0586C22.6661 14.0586 22.5019 14.0887 22.3379 14.1475C22.174 14.2063 22.0247 14.3014 21.8906 14.4336L17.4844 18.7793C17.3209 18.9405 17.19 19.1283 17.0928 19.3418C16.9957 19.5552 16.9473 19.7795 16.9473 20.0146V21.1172C16.9479 21.3666 17.0339 21.5767 17.2051 21.7461C17.3762 21.9154 17.5885 21.9999 17.8418 22H18.9609C19.2 21.9999 19.4278 21.9554 19.6436 21.8672C19.8593 21.779 20.049 21.6538 20.2129 21.4922L24.6201 17.1475C24.7549 17.0157 24.8511 16.8647 24.9102 16.6953C24.9692 16.5259 24.9994 16.36 25 16.1982C25.0006 16.0366 24.9668 15.8746 24.8994 15.7129C24.8321 15.5515 24.7391 15.4046 24.6201 15.2725L23.792 14.4561C23.6578 14.3243 23.5088 14.2247 23.3447 14.1582C23.1807 14.0918 23.009 14.0586 22.8301 14.0586ZM15.1582 14.9414C14.174 14.942 13.2044 15.0556 12.25 15.2832C11.2957 15.5108 10.3561 15.8528 9.43164 16.3086C8.9998 16.5298 8.65286 16.8498 8.3916 17.2686C8.13034 17.6874 8 18.1475 8 18.6475V20.2354C8.00061 20.4847 8.08666 20.6939 8.25781 20.8633C8.42897 21.0327 8.6411 21.1171 8.89453 21.1172H15.1582V19.6621C15.1582 19.3093 15.2252 18.9709 15.3594 18.6475C15.4935 18.3241 15.6871 18.037 15.9404 17.7871L18.4014 15.3604C17.8646 15.2139 17.3278 15.1075 16.791 15.041C16.2543 14.9746 15.7098 14.9414 15.1582 14.9414ZM23.6582 16.1982L22.8301 17.0586L21.9805 16.2207L22.8301 15.3828L23.6582 16.1982ZM15.1582 7C14.174 7 13.3308 7.34593 12.6299 8.03711C11.9293 8.72819 11.5791 9.55892 11.5791 10.5293C11.5791 11.4999 11.929 12.3313 12.6299 13.0225C13.3308 13.7136 14.174 14.0586 15.1582 14.0586C16.1422 14.0585 16.9848 13.7134 17.6855 13.0225C18.3864 12.3313 18.7363 11.4999 18.7363 10.5293C18.7363 9.55885 18.3863 8.72822 17.6855 8.03711C16.9848 7.34601 16.1423 7.00008 15.1582 7Z" fill="#F24171"/>
</svg>
